<?xml version="1.0" encoding="utf-8"?>
<!-- Generator: Adobe Illustrator 16.0.0, SVG Export Plug-In . SVG Version: 6.00 Build 0)  -->
<!DOCTYPE svg PUBLIC "-//W3C//DTD SVG 1.1//EN" "http://www.w3.org/Graphics/SVG/1.1/DTD/svg11.dtd">
<svg version="1.1"
	 id="svg2" xmlns:dc="http://purl.org/dc/elements/1.1/" xmlns:cc="http://creativecommons.org/ns#" xmlns:rdf="http://www.w3.org/1999/02/22-rdf-syntax-ns#" xmlns:svg="http://www.w3.org/2000/svg" xmlns:sodipodi="http://sodipodi.sourceforge.net/DTD/sodipodi-0.dtd" xmlns:inkscape="http://www.inkscape.org/namespaces/inkscape" sodipodi:docname="cs-privacy.svg" inkscape:version="0.48.5 r10040"
	 xmlns="http://www.w3.org/2000/svg" xmlns:xlink="http://www.w3.org/1999/xlink" x="0px" y="0px" width="612px" height="792px"
	 viewBox="0 0 612 792" enable-background="new 0 0 612 792" xml:space="preserve">
<sodipodi:namedview  gridtolerance="10" objecttolerance="10" guidetolerance="10" showgrid="false" inkscape:cy="32.956976" inkscape:cx="81.872657" inkscape:zoom="1.7383042" borderopacity="1" bordercolor="#666666" pagecolor="#ffffff" id="namedview74" inkscape:window-maximized="0" inkscape:window-y="39" inkscape:window-x="15" inkscape:window-height="570" inkscape:window-width="1082" inkscape:pageshadow="2" inkscape:current-layer="svg2" inkscape:pageopacity="0">
	</sodipodi:namedview>
<g id="g33" transform="translate(0,80)">
</g>
<path id="path61" inkscape:connector-curvature="0" fill="#00ACD4" d="M594.686,371.043c-6.108-8.584-12.852-16.663-19.66-24.627
	c-36.518-42.756-78.442-80.87-124.391-108.542c-29.334-17.688-60.754-31.94-93.28-38.814c-16.549-3.437-32.739-5.212-49.825-5.277
	c-16.548,0-33.081,1.84-49.629,5.277c-32.576,6.874-63.881,21.125-93.216,38.814c-45.932,27.673-87.922,65.803-124.57,108.542
	c-6.743,7.949-13.356,16.027-19.464,24.627c-8.34,11.45-8.34,24.937,0,36.387c18.649,26.143,40.915,49.353,63.441,70.689
	c48.733,45.753,104.536,84.046,166.055,99.503c19.024,4.772,38.114,7.069,57.268,7.069c19.399,0,38.358-2.297,57.383-7.069
	c61.52-15.457,117.387-53.766,166.186-99.503c22.656-21.256,44.856-44.53,63.556-70.689c8.209-11.45,8.209-24.937,0-36.387"/>
<path id="path63" inkscape:connector-curvature="0" fill="#F9F9F9" d="M454.268,389.236c0,80.935-65.641,146.591-146.592,146.591
	c-80.935,0-146.591-65.64-146.591-146.591c0-80.935,65.64-146.591,146.591-146.591C388.61,242.646,454.268,308.286,454.268,389.236"
	/>
<path id="SVGCleanerId_0" inkscape:connector-curvature="0" d="M389.115,389.236c0,44.922-36.452,81.375-81.439,81.375
	c-44.987,0-81.439-36.453-81.439-81.375c0-44.987,36.452-81.439,81.439-81.439C352.663,307.797,389.115,344.25,389.115,389.236"/>
</svg>
