<?xml version="1.0" encoding="utf-8"?>
<!-- Generator: Adobe Illustrator 16.0.0, SVG Export Plug-In . SVG Version: 6.00 Build 0)  -->
<!DOCTYPE svg PUBLIC "-//W3C//DTD SVG 1.1//EN" "http://www.w3.org/Graphics/SVG/1.1/DTD/svg11.dtd">
<svg version="1.1"
	 id="svg4230" xmlns:dc="http://purl.org/dc/elements/1.1/" xmlns:cc="http://creativecommons.org/ns#" xmlns:rdf="http://www.w3.org/1999/02/22-rdf-syntax-ns#" xmlns:svg="http://www.w3.org/2000/svg" xmlns:sodipodi="http://sodipodi.sourceforge.net/DTD/sodipodi-0.dtd" xmlns:inkscape="http://www.inkscape.org/namespaces/inkscape" sodipodi:docname="avastgui.svg" inkscape:version="0.48.5 r10040"
	 xmlns="http://www.w3.org/2000/svg" xmlns:xlink="http://www.w3.org/1999/xlink" x="0px" y="0px" width="128px" height="128px"
	 viewBox="0 0 128 128" enable-background="new 0 0 128 128" xml:space="preserve">
<sodipodi:namedview  borderlayer="true" showgrid="false" inkscape:cy="62.659123" inkscape:cx="83.90743" inkscape:zoom="3.9957626" borderopacity="1.0" bordercolor="#666666" pagecolor="#ffffff" id="base" inkscape:window-maximized="1" inkscape:window-y="24" inkscape:window-x="0" inkscape:window-height="744" inkscape:window-width="1366" inkscape:pageshadow="2" inkscape:current-layer="layer1" inkscape:pageopacity="0.0" inkscape:document-units="px" inkscape:showpageshadow="false">
	</sodipodi:namedview>
<g id="layer1" transform="translate(0,-924.3622)" inkscape:label="Capa 1" inkscape:groupmode="layer">
	<g id="text6661" transform="translate(-631.5516,396.70229)">
	</g>
	<path id="path2999" fill="#F79120" d="M99.316,929.021c-0.903,0-1.727,0.059-2.644,0.242c-6.369,1.239-11.306,6.1-12.614,12.375
		c-0.512,2.45-1.137,4.367-1.922,5.886c-0.668,1.292-3.492,4.063-5.166,5.046c-2.588,1.519-6.307,2.374-7.809,1.802
		c-5.798-1.295-11.236-0.523-17.18-0.242c-2.906,0.045-3.96-0.621-5.286-2.883c-0.674-1.15-0.841-1.817-0.841-3.845
		c0-2.936-0.799-5.027-2.523-6.607c-4.591-4.206-11.988-0.758-12.014,5.526c-0.474,3.271,1.348,5.223,4.084,6.607
		c2.388,1.257,3.682,2.668,4.205,4.686c0.397,1.533,0.305,1.798-0.24,3.003c-0.333,0.733-0.861,1.685-1.202,2.042
		c-3.123,3.282-6.242,8.491-7.328,12.134c-0.953,3.197-1.484,7.81-1.322,11.413c0.153,3.376,0.068,3.466-0.961,5.166
		c-2.292,3.256-7.261,4.674-9.491,4.085c-1.932-0.515-4.915-0.315-5.526-0.119c-2.154,0.612-4.09,1.893-5.646,3.124
		c-3.501,3.567-4.145,8.545-1.682,12.975c1.464,2.633,3.644,4.173,7.208,5.285c2.527,0.789,5.754,0.174,8.53-1.561
		c1.507-0.943,1.685-1.083,3.604-3.965c2.401-3.607,4.79-5.083,8.65-5.406c2.765-0.232,4.637,0.356,6.848,2.162
		c1.851,1.514,5.826,3.71,8.29,4.565c3.438,1.192,6.296,1.656,12.134,1.802c4.738,0.119,6.084,0.283,7.688,0.842
		c2.972,1.035,6.069,3.091,7.929,5.166c2.049,2.284,4.07,6.287,4.566,9.13c1.161,6.661,3.51,10.791,8.409,14.657
		c1.948,1.537,3.649,2.489,6.007,3.243c1.643,0.525,2.842,0.558,7.088,0.48c5.689-0.105,7.098-0.448,10.332-2.402
		c2.141-1.296,5.881-4.687,6.607-6.007c3.002-5.455,3.604-7.482,3.604-11.895c0-2.165-0.143-4.08-0.48-5.285
		c-2.365-8.456-8.423-14.041-17.18-15.738c-3.045-0.59-4.058-0.863-6.006-1.803c-4.545-2.189-8.693-7.469-9.852-12.493
		c-0.232-1.007-0.451-5.374-0.48-11.413c-0.039-7.971,0.08-9.948,0.48-11.053c1.876-5.171,5.949-8.686,11.293-9.611
		c5.125-0.887,9.265-3.665,11.533-7.809c1.469-2.684,1.803-3.648,2.042-6.607C115.777,936.745,108.041,928.971,99.316,929.021z"/>
	<path id="path2997" fill="#FFFFFF" d="M58.95,963.019c5.797-0.05,10.379,1.8,14.657,5.887c2.181,2.083,2.856,3.002,4.085,5.526
		c0.805,1.655,1.471,3.497,1.562,4.084c0.091,0.588,0.343,1.651,0.48,2.403c0.488,2.652-0.104,7.672-1.201,10.452
		c-2.354,5.963-7.573,10.636-13.815,12.494c-3.313,0.986-8.585,0.941-11.894-0.119c-2.333-0.747-5.642-2.674-7.448-4.325
		c-6.98-6.379-9.081-16.67-4.926-24.868C44.061,967.427,51.089,963.085,58.95,963.019z"/>
	<path id="path933" fill-opacity="0.498" d="M58.709,970.948c-3.456,0.046-6.648,1.597-9.25,4.445
		c-2.25,2.461-2.987,4.682-3.003,8.41c-0.01,2.307,0.135,3.333,0.721,4.805c0.905,2.277,3.383,5.068,5.646,6.367
		c2.773,1.591,6.229,1.248,8.29-0.961c0.862-0.925,1.829-3.172,1.562-3.604c-0.105-0.17-1.324-0.243-2.643-0.243
		c-1.319,0-2.86-0.173-3.364-0.36c-2.121-0.803-3.951-3.645-3.964-6.007c-0.026-4.48,4.789-7.616,8.89-5.887
		c1.325,0.559,3.012,2.232,3.483,3.484c0.199,0.527,0.361,3.538,0.361,7.088v6.126h0.721c1.182,0,3.285-1.069,4.205-2.162
		c1.389-1.651,1.605-2.919,1.441-7.449c-0.184-5.043-0.879-7.023-3.244-9.61c-1.923-2.104-3.69-3.298-6.247-3.964
		C61.111,971.106,59.861,970.936,58.709,970.948L58.709,970.948z"/>
</g>
</svg>
