<?xml version="1.0" encoding="utf-8"?>
<!-- Generator: Adobe Illustrator 16.0.0, SVG Export Plug-In . SVG Version: 6.00 Build 0)  -->
<!DOCTYPE svg PUBLIC "-//W3C//DTD SVG 1.1//EN" "http://www.w3.org/Graphics/SVG/1.1/DTD/svg11.dtd">
<svg version="1.1"
	 id="svg2" xmlns:dc="http://purl.org/dc/elements/1.1/" xmlns:cc="http://creativecommons.org/ns#" xmlns:rdf="http://www.w3.org/1999/02/22-rdf-syntax-ns#" xmlns:svg="http://www.w3.org/2000/svg" xmlns:sodipodi="http://sodipodi.sourceforge.net/DTD/sodipodi-0.dtd" xmlns:inkscape="http://www.inkscape.org/namespaces/inkscape" sodipodi:docname="facebook.svg" inkscape:version="0.91 r"
	 xmlns="http://www.w3.org/2000/svg" xmlns:xlink="http://www.w3.org/1999/xlink" x="0px" y="0px" width="512px" height="512px"
	 viewBox="0 0 512 512" enable-background="new 0 0 512 512" xml:space="preserve">
<sodipodi:namedview  gridtolerance="10" objecttolerance="10" guidetolerance="10" showgrid="false" inkscape:cy="264.09247" inkscape:cx="187.01923" inkscape:zoom="1" borderopacity="1" bordercolor="#666666" pagecolor="#ffffff" id="namedview4" inkscape:window-maximized="0" inkscape:window-y="39" inkscape:window-x="15" inkscape:window-height="677" inkscape:window-width="1267" inkscape:pageshadow="2" inkscape:current-layer="svg2" inkscape:pageopacity="0">
	</sodipodi:namedview>
<g>
	<defs>
		<path id="SVGID_1_" d="M100.418,35.938h313.164c35.577,0,64.418,28.841,64.418,64.418v314.227
			C478,450.159,449.159,479,413.582,479H100.418C64.841,479,36,450.159,36,414.582V100.355C36,64.778,64.841,35.938,100.418,35.938z
			"/>
	</defs>
	<clipPath id="SVGID_2_">
		<use xlink:href="#SVGID_1_"  overflow="visible"/>
	</clipPath>
	<path id="rect3356" clip-path="url(#SVGID_2_)" fill="#FFFFFF" d="M217.292,76.508h129.353c35.576,0,64.417,28.841,64.417,64.417
		V419.34c0,35.577-28.841,64.418-64.417,64.418H217.292c-35.577,0-64.418-28.841-64.418-64.418V140.926
		C152.875,105.349,181.715,76.508,217.292,76.508z"/>
</g>
<g>
	<defs>
		<path id="SVGID_3_" d="M100.418,35.938h313.164c35.577,0,64.418,28.841,64.418,64.418v314.227
			C478,450.159,449.159,479,413.582,479H100.418C64.841,479,36,450.159,36,414.582V100.355C36,64.778,64.841,35.938,100.418,35.938z
			"/>
	</defs>
	<clipPath id="SVGID_4_">
		<use xlink:href="#SVGID_3_"  overflow="visible"/>
	</clipPath>
	
		<path id="path3339" sodipodi:nodetypes="ssssssscsscccccssscccsssscccssssscccccccccss" inkscape:connector-curvature="0" clip-path="url(#SVGID_4_)" fill="#0068A9" d="
		M49.539,482.646c-7.5-2.021-11.68-4.686-17.497-11.154c-9.431-10.489-8.621,9.957-8.621-217.723
		c0-231.389-1.129-207.84,10.531-219.5c11.661-11.661-11.889-10.531,219.5-10.531c231.39,0,207.842-1.222,219.313,10.625
		c11.475,11.85,10.719-12.132,10.719,220.469v202.406l-2.955,6.018c-3.759,7.655-9.935,13.831-17.59,17.59l-6.018,2.955h-68h-68
		l-0.271-96.953l-0.271-96.953h25.375c20.115,0,25.625-0.3,26.576-1.446c1.064-1.282,7.56-54.992,7.56-62.508v-2.949l-29.484-0.283
		l-29.484-0.282l-0.289-20.617c-0.159-11.339,0.201-23.268,0.8-26.507c1.265-6.841,4.836-11.241,10.585-13.042
		c2.079-0.651,14.776-1.485,28.217-1.853l24.438-0.669v-32.938V93.862l-42.281-0.278c-38.126-0.25-43.243-0.079-52.063,1.746
		c-12.388,2.564-20.136,5.501-27.999,10.616c-15.596,10.146-24.507,23.608-29.653,44.8c-1.547,6.371-2.043,14.189-2.527,39.803
		l-0.602,31.875l-16.469,0.531l-16.469,0.531v32.938v32.937l16.469,0.531l16.469,0.531v96.688v96.688l-87.125,0.199
		C68.928,484.166,54.396,483.954,49.539,482.646L49.539,482.646z"/>
</g>
<g>
	<defs>
		<path id="SVGID_5_" d="M100.418,35.938h313.164c35.577,0,64.418,28.841,64.418,64.418v314.227
			C478,450.159,449.159,479,413.582,479H100.418C64.841,479,36,450.159,36,414.582V100.355C36,64.778,64.841,35.938,100.418,35.938z
			"/>
	</defs>
	<clipPath id="SVGID_6_">
		<use xlink:href="#SVGID_5_"  overflow="visible"/>
	</clipPath>
	
		<path id="path3335" sodipodi:nodetypes="ccssscccssscscccccsscccc" inkscape:connector-curvature="0" clip-path="url(#SVGID_6_)" fill="#1A4790" d="
		M317.727,385.707l0.133-96.991l27.89-0.083c19.65-0.059,23.24,0.615,24.138-0.465c1.283-1.547,7.009-56.285,6.991-61.484
		l-0.013-3.92l-27.399-0.429l-29.086,0.091l-0.103-26.362c-0.101-25.867,0.45-29.471,8.811-33.24
		c4.484-2.022,7.407-2.368,29.691-2.77c13.586-0.245,24.55,0.186,24.674,0.108c0.125-0.079,0.301-14.405,0.338-32.069l0.073-34.104
		l49.143,56.417l48.079,54.424l2.39,126.305l0.134,126.122l-3.05,7.878c-2.997,7.743-10.6,14.078-18.731,16.887l-5.977,2.063
		l-67.602,0.17l-67.734,0.038L317.727,385.707z"/>
</g>
</svg>
