<?xml version="1.0" encoding="utf-8"?>
<!-- Generator: Adobe Illustrator 16.0.0, SVG Export Plug-In . SVG Version: 6.00 Build 0)  -->
<!DOCTYPE svg PUBLIC "-//W3C//DTD SVG 1.1//EN" "http://www.w3.org/Graphics/SVG/1.1/DTD/svg11.dtd">
<svg version="1.1"
	 id="svg2" xmlns:dc="http://purl.org/dc/elements/1.1/" xmlns:cc="http://creativecommons.org/ns#" xmlns:rdf="http://www.w3.org/1999/02/22-rdf-syntax-ns#" xmlns:svg="http://www.w3.org/2000/svg" xmlns:sodipodi="http://sodipodi.sourceforge.net/DTD/sodipodi-0.dtd" xmlns:inkscape="http://www.inkscape.org/namespaces/inkscape" sodipodi:docname="gnome-music.svg" inkscape:version="0.91 r13725"
	 xmlns="http://www.w3.org/2000/svg" xmlns:xlink="http://www.w3.org/1999/xlink" x="0px" y="0px" width="512px" height="512px"
	 viewBox="0 0 512 512" enable-background="new 0 0 512 512" xml:space="preserve">
<filter  style="color-interpolation-filters:sRGB" height="1.0735901" width="1.0752211" y="-0.036795063" x="-0.037610565" id="filter5079" inkscape:collect="always">
	<feGaussianBlur  stdDeviation="2.9760644" id="feGaussianBlur5081" inkscape:collect="always"></feGaussianBlur>
</filter>
<defs>
	
	<inkscape:path-effect  is_visible="true" effect="spiro" id="path-effect4181-3"></inkscape:path-effect>
	<inkscape:path-effect  is_visible="true" effect="spiro" id="path-effect4147-7"></inkscape:path-effect>
	<inkscape:path-effect  is_visible="true" effect="spiro" id="path-effect4085-4"></inkscape:path-effect>
	<inkscape:path-effect  is_visible="true" effect="spiro" id="path-effect3960-4"></inkscape:path-effect>
	<inkscape:path-effect  is_visible="true" effect="spiro" id="path-effect3938-5"></inkscape:path-effect>
	<inkscape:path-effect  is_visible="true" effect="spiro" id="path-effect3889-3"></inkscape:path-effect>
	<inkscape:path-effect  is_visible="true" effect="spiro" id="path-effect3855-4"></inkscape:path-effect>
	<inkscape:path-effect  is_visible="true" effect="spiro" id="path-effect3829-8"></inkscape:path-effect>
	<inkscape:path-effect  is_visible="true" effect="spiro" id="path-effect3829"></inkscape:path-effect>
	<inkscape:path-effect  is_visible="true" effect="spiro" id="path-effect3855"></inkscape:path-effect>
	<inkscape:path-effect  is_visible="true" effect="spiro" id="path-effect3889"></inkscape:path-effect>
	<inkscape:path-effect  is_visible="true" effect="spiro" id="path-effect3938"></inkscape:path-effect>
	<inkscape:path-effect  is_visible="true" effect="spiro" id="path-effect3960"></inkscape:path-effect>
	<inkscape:path-effect  is_visible="true" effect="spiro" id="path-effect4085"></inkscape:path-effect>
	<inkscape:path-effect  is_visible="true" effect="spiro" id="path-effect4147"></inkscape:path-effect>
	<inkscape:path-effect  is_visible="true" effect="spiro" id="path-effect4181"></inkscape:path-effect>
	<inkscape:path-effect  is_visible="true" effect="spiro" id="path-effect4181-3-5"></inkscape:path-effect>
	<inkscape:path-effect  is_visible="true" effect="spiro" id="path-effect4147-7-1"></inkscape:path-effect>
	<inkscape:path-effect  is_visible="true" effect="spiro" id="path-effect4085-4-0"></inkscape:path-effect>
	<inkscape:path-effect  is_visible="true" effect="spiro" id="path-effect3960-4-3"></inkscape:path-effect>
	<inkscape:path-effect  is_visible="true" effect="spiro" id="path-effect3938-5-7"></inkscape:path-effect>
	<inkscape:path-effect  is_visible="true" effect="spiro" id="path-effect3889-3-1"></inkscape:path-effect>
	<inkscape:path-effect  is_visible="true" effect="spiro" id="path-effect3855-4-1"></inkscape:path-effect>
	<inkscape:path-effect  is_visible="true" effect="spiro" id="path-effect3829-8-1"></inkscape:path-effect>
	<inkscape:path-effect  is_visible="true" effect="spiro" id="path-effect3829-9"></inkscape:path-effect>
	<inkscape:path-effect  is_visible="true" effect="spiro" id="path-effect3855-7"></inkscape:path-effect>
	<inkscape:path-effect  is_visible="true" effect="spiro" id="path-effect3889-31"></inkscape:path-effect>
	<inkscape:path-effect  is_visible="true" effect="spiro" id="path-effect3938-52"></inkscape:path-effect>
	<inkscape:path-effect  is_visible="true" effect="spiro" id="path-effect3960-2"></inkscape:path-effect>
	<inkscape:path-effect  is_visible="true" effect="spiro" id="path-effect4085-0"></inkscape:path-effect>
	<inkscape:path-effect  is_visible="true" effect="spiro" id="path-effect4147-0"></inkscape:path-effect>
	<inkscape:path-effect  is_visible="true" effect="spiro" id="path-effect4181-32"></inkscape:path-effect>
	<inkscape:path-effect  is_visible="true" effect="spiro" id="path-effect3829-4"></inkscape:path-effect>
	<inkscape:path-effect  is_visible="true" effect="spiro" id="path-effect3855-43"></inkscape:path-effect>
	<inkscape:path-effect  is_visible="true" effect="spiro" id="path-effect3889-0"></inkscape:path-effect>
	<inkscape:path-effect  is_visible="true" effect="spiro" id="path-effect3938-8"></inkscape:path-effect>
	<inkscape:path-effect  is_visible="true" effect="spiro" id="path-effect3960-7"></inkscape:path-effect>
	<inkscape:path-effect  is_visible="true" effect="spiro" id="path-effect4085-6"></inkscape:path-effect>
	<inkscape:path-effect  is_visible="true" effect="spiro" id="path-effect4147-6"></inkscape:path-effect>
	<inkscape:path-effect  is_visible="true" effect="spiro" id="path-effect4181-6"></inkscape:path-effect>
	<inkscape:path-effect  is_visible="true" effect="spiro" id="path-effect4181-4"></inkscape:path-effect>
	<inkscape:path-effect  is_visible="true" effect="spiro" id="path-effect4147-78"></inkscape:path-effect>
	<inkscape:path-effect  is_visible="true" effect="spiro" id="path-effect4085-7"></inkscape:path-effect>
	<inkscape:path-effect  is_visible="true" effect="spiro" id="path-effect3960-3"></inkscape:path-effect>
	<inkscape:path-effect  is_visible="true" effect="spiro" id="path-effect3938-6"></inkscape:path-effect>
	<inkscape:path-effect  is_visible="true" effect="spiro" id="path-effect3889-2"></inkscape:path-effect>
	<inkscape:path-effect  is_visible="true" effect="spiro" id="path-effect3855-46"></inkscape:path-effect>
	<inkscape:path-effect  is_visible="true" effect="spiro" id="path-effect3829-89"></inkscape:path-effect>
	<inkscape:path-effect  is_visible="true" effect="spiro" id="path-effect4181-8"></inkscape:path-effect>
	<inkscape:path-effect  is_visible="true" effect="spiro" id="path-effect4147-9"></inkscape:path-effect>
	<inkscape:path-effect  is_visible="true" effect="spiro" id="path-effect4085-65"></inkscape:path-effect>
	<inkscape:path-effect  is_visible="true" effect="spiro" id="path-effect3960-21"></inkscape:path-effect>
	<inkscape:path-effect  is_visible="true" effect="spiro" id="path-effect3938-0"></inkscape:path-effect>
	<inkscape:path-effect  is_visible="true" effect="spiro" id="path-effect3889-4"></inkscape:path-effect>
	<inkscape:path-effect  is_visible="true" effect="spiro" id="path-effect3855-6"></inkscape:path-effect>
	<inkscape:path-effect  is_visible="true" effect="spiro" id="path-effect3829-47"></inkscape:path-effect>
	<inkscape:path-effect  is_visible="true" effect="spiro" id="path-effect3829-5"></inkscape:path-effect>
	<inkscape:path-effect  is_visible="true" effect="spiro" id="path-effect3855-0"></inkscape:path-effect>
	<inkscape:path-effect  is_visible="true" effect="spiro" id="path-effect3889-40"></inkscape:path-effect>
	<inkscape:path-effect  is_visible="true" effect="spiro" id="path-effect3938-58"></inkscape:path-effect>
	<inkscape:path-effect  is_visible="true" effect="spiro" id="path-effect3960-9"></inkscape:path-effect>
	<inkscape:path-effect  is_visible="true" effect="spiro" id="path-effect4085-5"></inkscape:path-effect>
	<inkscape:path-effect  is_visible="true" effect="spiro" id="path-effect4147-5"></inkscape:path-effect>
	<inkscape:path-effect  is_visible="true" effect="spiro" id="path-effect4181-86"></inkscape:path-effect>
	
		<inkscape:perspective  inkscape:vp_y="0 : 999.99996 : 0" inkscape:vp_x="0 : 12 : 1" sodipodi:type="inkscape:persp3d" inkscape:vp_z="23.999999 : 12 : 1" id="perspective3810" inkscape:persp3d-origin="12 : 7.9999997 : 1">
		</inkscape:perspective>
	<inkscape:path-effect  is_visible="true" effect="spiro" id="path-effect4181-3-50"></inkscape:path-effect>
	<inkscape:path-effect  is_visible="true" effect="spiro" id="path-effect4147-7-3"></inkscape:path-effect>
	<inkscape:path-effect  is_visible="true" effect="spiro" id="path-effect4085-4-6"></inkscape:path-effect>
	<inkscape:path-effect  is_visible="true" effect="spiro" id="path-effect3960-4-8"></inkscape:path-effect>
	<inkscape:path-effect  is_visible="true" effect="spiro" id="path-effect3938-5-0"></inkscape:path-effect>
	<inkscape:path-effect  is_visible="true" effect="spiro" id="path-effect3889-3-9"></inkscape:path-effect>
	<inkscape:path-effect  is_visible="true" effect="spiro" id="path-effect3855-4-3"></inkscape:path-effect>
	<inkscape:path-effect  is_visible="true" effect="spiro" id="path-effect3829-8-4"></inkscape:path-effect>
	<inkscape:path-effect  is_visible="true" effect="spiro" id="path-effect3829-3"></inkscape:path-effect>
	<inkscape:path-effect  is_visible="true" effect="spiro" id="path-effect3855-9"></inkscape:path-effect>
	<inkscape:path-effect  is_visible="true" effect="spiro" id="path-effect3889-8"></inkscape:path-effect>
	<inkscape:path-effect  is_visible="true" effect="spiro" id="path-effect3938-7"></inkscape:path-effect>
	<inkscape:path-effect  is_visible="true" effect="spiro" id="path-effect3960-94"></inkscape:path-effect>
	<inkscape:path-effect  is_visible="true" effect="spiro" id="path-effect4085-78"></inkscape:path-effect>
	<inkscape:path-effect  is_visible="true" effect="spiro" id="path-effect4147-91"></inkscape:path-effect>
	<inkscape:path-effect  is_visible="true" effect="spiro" id="path-effect4181-2"></inkscape:path-effect>
	<inkscape:path-effect  is_visible="true" effect="spiro" id="path-effect4181-3-5-5"></inkscape:path-effect>
	<inkscape:path-effect  is_visible="true" effect="spiro" id="path-effect4147-7-1-6"></inkscape:path-effect>
	<inkscape:path-effect  is_visible="true" effect="spiro" id="path-effect4085-4-0-1"></inkscape:path-effect>
	<inkscape:path-effect  is_visible="true" effect="spiro" id="path-effect3960-4-3-2"></inkscape:path-effect>
	<inkscape:path-effect  is_visible="true" effect="spiro" id="path-effect3938-5-7-7"></inkscape:path-effect>
	<inkscape:path-effect  is_visible="true" effect="spiro" id="path-effect3889-3-1-8"></inkscape:path-effect>
	<inkscape:path-effect  is_visible="true" effect="spiro" id="path-effect3855-4-1-8"></inkscape:path-effect>
	<inkscape:path-effect  is_visible="true" effect="spiro" id="path-effect3829-8-1-4"></inkscape:path-effect>
	<inkscape:path-effect  is_visible="true" effect="spiro" id="path-effect3829-9-8"></inkscape:path-effect>
	<inkscape:path-effect  is_visible="true" effect="spiro" id="path-effect3855-7-8"></inkscape:path-effect>
	<inkscape:path-effect  is_visible="true" effect="spiro" id="path-effect3889-31-3"></inkscape:path-effect>
	<inkscape:path-effect  is_visible="true" effect="spiro" id="path-effect3938-52-4"></inkscape:path-effect>
	<inkscape:path-effect  is_visible="true" effect="spiro" id="path-effect3960-2-8"></inkscape:path-effect>
	<inkscape:path-effect  is_visible="true" effect="spiro" id="path-effect4085-0-3"></inkscape:path-effect>
	<inkscape:path-effect  is_visible="true" effect="spiro" id="path-effect4147-0-7"></inkscape:path-effect>
	<inkscape:path-effect  is_visible="true" effect="spiro" id="path-effect4181-32-9"></inkscape:path-effect>
	<inkscape:path-effect  is_visible="true" effect="spiro" id="path-effect3829-4-2"></inkscape:path-effect>
	<inkscape:path-effect  is_visible="true" effect="spiro" id="path-effect3855-43-0"></inkscape:path-effect>
	<inkscape:path-effect  is_visible="true" effect="spiro" id="path-effect3889-0-4"></inkscape:path-effect>
	<inkscape:path-effect  is_visible="true" effect="spiro" id="path-effect3938-8-9"></inkscape:path-effect>
	<inkscape:path-effect  is_visible="true" effect="spiro" id="path-effect3960-7-4"></inkscape:path-effect>
	<inkscape:path-effect  is_visible="true" effect="spiro" id="path-effect4085-6-1"></inkscape:path-effect>
	<inkscape:path-effect  is_visible="true" effect="spiro" id="path-effect4147-6-7"></inkscape:path-effect>
	<inkscape:path-effect  is_visible="true" effect="spiro" id="path-effect4181-6-7"></inkscape:path-effect>
	<inkscape:path-effect  is_visible="true" effect="spiro" id="path-effect4181-4-4"></inkscape:path-effect>
	<inkscape:path-effect  is_visible="true" effect="spiro" id="path-effect4147-78-6"></inkscape:path-effect>
	<inkscape:path-effect  is_visible="true" effect="spiro" id="path-effect4085-7-1"></inkscape:path-effect>
	<inkscape:path-effect  is_visible="true" effect="spiro" id="path-effect3960-3-0"></inkscape:path-effect>
	<inkscape:path-effect  is_visible="true" effect="spiro" id="path-effect3938-6-1"></inkscape:path-effect>
	<inkscape:path-effect  is_visible="true" effect="spiro" id="path-effect3889-2-7"></inkscape:path-effect>
	<inkscape:path-effect  is_visible="true" effect="spiro" id="path-effect3855-46-8"></inkscape:path-effect>
	<inkscape:path-effect  is_visible="true" effect="spiro" id="path-effect3829-89-0"></inkscape:path-effect>
	<inkscape:path-effect  is_visible="true" effect="spiro" id="path-effect4181-8-8"></inkscape:path-effect>
	<inkscape:path-effect  is_visible="true" effect="spiro" id="path-effect4147-9-1"></inkscape:path-effect>
	<inkscape:path-effect  is_visible="true" effect="spiro" id="path-effect4085-65-7"></inkscape:path-effect>
	<inkscape:path-effect  is_visible="true" effect="spiro" id="path-effect3960-21-8"></inkscape:path-effect>
	<inkscape:path-effect  is_visible="true" effect="spiro" id="path-effect3938-0-3"></inkscape:path-effect>
	<inkscape:path-effect  is_visible="true" effect="spiro" id="path-effect3889-4-2"></inkscape:path-effect>
	<inkscape:path-effect  is_visible="true" effect="spiro" id="path-effect3855-6-8"></inkscape:path-effect>
	<inkscape:path-effect  is_visible="true" effect="spiro" id="path-effect3829-47-2"></inkscape:path-effect>
	<inkscape:path-effect  is_visible="true" effect="spiro" id="path-effect3829-5-9"></inkscape:path-effect>
	<inkscape:path-effect  is_visible="true" effect="spiro" id="path-effect3855-0-8"></inkscape:path-effect>
	<inkscape:path-effect  is_visible="true" effect="spiro" id="path-effect3889-40-1"></inkscape:path-effect>
	<inkscape:path-effect  is_visible="true" effect="spiro" id="path-effect3938-58-0"></inkscape:path-effect>
	<inkscape:path-effect  is_visible="true" effect="spiro" id="path-effect3960-9-9"></inkscape:path-effect>
	<inkscape:path-effect  is_visible="true" effect="spiro" id="path-effect4085-5-6"></inkscape:path-effect>
	<inkscape:path-effect  is_visible="true" effect="spiro" id="path-effect4147-5-8"></inkscape:path-effect>
	<inkscape:path-effect  is_visible="true" effect="spiro" id="path-effect4181-86-8"></inkscape:path-effect>
	
		<inkscape:perspective  inkscape:vp_y="0 : 999.99996 : 0" inkscape:vp_x="0 : 12 : 1" sodipodi:type="inkscape:persp3d" inkscape:vp_z="23.999999 : 12 : 1" id="perspective3810-0" inkscape:persp3d-origin="12 : 7.9999997 : 1">
		</inkscape:perspective>
	<inkscape:path-effect  is_visible="true" effect="spiro" id="path-effect4181-3-6"></inkscape:path-effect>
	<inkscape:path-effect  is_visible="true" effect="spiro" id="path-effect4147-7-2"></inkscape:path-effect>
	<inkscape:path-effect  is_visible="true" effect="spiro" id="path-effect4085-4-9"></inkscape:path-effect>
	<inkscape:path-effect  is_visible="true" effect="spiro" id="path-effect3960-4-7"></inkscape:path-effect>
	<inkscape:path-effect  is_visible="true" effect="spiro" id="path-effect3938-5-09"></inkscape:path-effect>
	<inkscape:path-effect  is_visible="true" effect="spiro" id="path-effect3889-3-3"></inkscape:path-effect>
	<inkscape:path-effect  is_visible="true" effect="spiro" id="path-effect3855-4-6"></inkscape:path-effect>
	<inkscape:path-effect  is_visible="true" effect="spiro" id="path-effect3829-8-0"></inkscape:path-effect>
	<inkscape:path-effect  is_visible="true" effect="spiro" id="path-effect3829-36"></inkscape:path-effect>
	<inkscape:path-effect  is_visible="true" effect="spiro" id="path-effect3855-1"></inkscape:path-effect>
	<inkscape:path-effect  is_visible="true" effect="spiro" id="path-effect3889-29"></inkscape:path-effect>
	<inkscape:path-effect  is_visible="true" effect="spiro" id="path-effect3938-3"></inkscape:path-effect>
	<inkscape:path-effect  is_visible="true" effect="spiro" id="path-effect3960-1"></inkscape:path-effect>
	<inkscape:path-effect  is_visible="true" effect="spiro" id="path-effect4085-9"></inkscape:path-effect>
	<inkscape:path-effect  is_visible="true" effect="spiro" id="path-effect4147-4"></inkscape:path-effect>
	<inkscape:path-effect  is_visible="true" effect="spiro" id="path-effect4181-7"></inkscape:path-effect>
	<inkscape:path-effect  is_visible="true" effect="spiro" id="path-effect4181-3-5-8"></inkscape:path-effect>
	<inkscape:path-effect  is_visible="true" effect="spiro" id="path-effect4147-7-1-4"></inkscape:path-effect>
	<inkscape:path-effect  is_visible="true" effect="spiro" id="path-effect4085-4-0-5"></inkscape:path-effect>
	<inkscape:path-effect  is_visible="true" effect="spiro" id="path-effect3960-4-3-0"></inkscape:path-effect>
	<inkscape:path-effect  is_visible="true" effect="spiro" id="path-effect3938-5-7-3"></inkscape:path-effect>
	<inkscape:path-effect  is_visible="true" effect="spiro" id="path-effect3889-3-1-6"></inkscape:path-effect>
	<inkscape:path-effect  is_visible="true" effect="spiro" id="path-effect3855-4-1-1"></inkscape:path-effect>
	<inkscape:path-effect  is_visible="true" effect="spiro" id="path-effect3829-8-1-0"></inkscape:path-effect>
	<inkscape:path-effect  is_visible="true" effect="spiro" id="path-effect3829-9-9"></inkscape:path-effect>
	<inkscape:path-effect  is_visible="true" effect="spiro" id="path-effect3855-7-3"></inkscape:path-effect>
	<inkscape:path-effect  is_visible="true" effect="spiro" id="path-effect3889-31-7"></inkscape:path-effect>
	<inkscape:path-effect  is_visible="true" effect="spiro" id="path-effect3938-52-45"></inkscape:path-effect>
	<inkscape:path-effect  is_visible="true" effect="spiro" id="path-effect3960-2-2"></inkscape:path-effect>
	<inkscape:path-effect  is_visible="true" effect="spiro" id="path-effect4085-0-5"></inkscape:path-effect>
	<inkscape:path-effect  is_visible="true" effect="spiro" id="path-effect4147-0-4"></inkscape:path-effect>
	<inkscape:path-effect  is_visible="true" effect="spiro" id="path-effect4181-32-7"></inkscape:path-effect>
	<inkscape:path-effect  is_visible="true" effect="spiro" id="path-effect3829-4-8"></inkscape:path-effect>
	<inkscape:path-effect  is_visible="true" effect="spiro" id="path-effect3855-43-8"></inkscape:path-effect>
	<inkscape:path-effect  is_visible="true" effect="spiro" id="path-effect3889-0-43"></inkscape:path-effect>
	<inkscape:path-effect  is_visible="true" effect="spiro" id="path-effect3938-8-1"></inkscape:path-effect>
	<inkscape:path-effect  is_visible="true" effect="spiro" id="path-effect3960-7-49"></inkscape:path-effect>
	<inkscape:path-effect  is_visible="true" effect="spiro" id="path-effect4085-6-2"></inkscape:path-effect>
	<inkscape:path-effect  is_visible="true" effect="spiro" id="path-effect4147-6-0"></inkscape:path-effect>
	<inkscape:path-effect  is_visible="true" effect="spiro" id="path-effect4181-6-6"></inkscape:path-effect>
	<inkscape:path-effect  is_visible="true" effect="spiro" id="path-effect4181-4-8"></inkscape:path-effect>
	<inkscape:path-effect  is_visible="true" effect="spiro" id="path-effect4147-78-9"></inkscape:path-effect>
	<inkscape:path-effect  is_visible="true" effect="spiro" id="path-effect4085-7-2"></inkscape:path-effect>
	<inkscape:path-effect  is_visible="true" effect="spiro" id="path-effect3960-3-6"></inkscape:path-effect>
	<inkscape:path-effect  is_visible="true" effect="spiro" id="path-effect3938-6-6"></inkscape:path-effect>
	<inkscape:path-effect  is_visible="true" effect="spiro" id="path-effect3889-2-4"></inkscape:path-effect>
	<inkscape:path-effect  is_visible="true" effect="spiro" id="path-effect3855-46-9"></inkscape:path-effect>
	<inkscape:path-effect  is_visible="true" effect="spiro" id="path-effect3829-89-5"></inkscape:path-effect>
	<inkscape:path-effect  is_visible="true" effect="spiro" id="path-effect4181-8-2"></inkscape:path-effect>
	<inkscape:path-effect  is_visible="true" effect="spiro" id="path-effect4147-9-7"></inkscape:path-effect>
	<inkscape:path-effect  is_visible="true" effect="spiro" id="path-effect4085-65-2"></inkscape:path-effect>
	<inkscape:path-effect  is_visible="true" effect="spiro" id="path-effect3960-21-2"></inkscape:path-effect>
	<inkscape:path-effect  is_visible="true" effect="spiro" id="path-effect3938-0-6"></inkscape:path-effect>
	<inkscape:path-effect  is_visible="true" effect="spiro" id="path-effect3889-4-1"></inkscape:path-effect>
	<inkscape:path-effect  is_visible="true" effect="spiro" id="path-effect3855-6-0"></inkscape:path-effect>
	<inkscape:path-effect  is_visible="true" effect="spiro" id="path-effect3829-47-6"></inkscape:path-effect>
	<inkscape:path-effect  is_visible="true" effect="spiro" id="path-effect3829-5-97"></inkscape:path-effect>
	<inkscape:path-effect  is_visible="true" effect="spiro" id="path-effect3855-0-7"></inkscape:path-effect>
	<inkscape:path-effect  is_visible="true" effect="spiro" id="path-effect3889-40-6"></inkscape:path-effect>
	<inkscape:path-effect  is_visible="true" effect="spiro" id="path-effect3938-58-7"></inkscape:path-effect>
	<inkscape:path-effect  is_visible="true" effect="spiro" id="path-effect3960-9-3"></inkscape:path-effect>
	<inkscape:path-effect  is_visible="true" effect="spiro" id="path-effect4085-5-65"></inkscape:path-effect>
	<inkscape:path-effect  is_visible="true" effect="spiro" id="path-effect4147-5-6"></inkscape:path-effect>
	<inkscape:path-effect  is_visible="true" effect="spiro" id="path-effect4181-86-3"></inkscape:path-effect>
	
		<inkscape:perspective  inkscape:vp_y="0 : 999.99996 : 0" inkscape:vp_x="0 : 12 : 1" sodipodi:type="inkscape:persp3d" inkscape:vp_z="23.999999 : 12 : 1" id="perspective3810-5" inkscape:persp3d-origin="12 : 7.9999997 : 1">
		</inkscape:perspective>
	<inkscape:path-effect  is_visible="true" effect="spiro" id="path-effect4181-3-50-1"></inkscape:path-effect>
	<inkscape:path-effect  is_visible="true" effect="spiro" id="path-effect4147-7-3-5"></inkscape:path-effect>
	<inkscape:path-effect  is_visible="true" effect="spiro" id="path-effect4085-4-6-9"></inkscape:path-effect>
	<inkscape:path-effect  is_visible="true" effect="spiro" id="path-effect3960-4-8-8"></inkscape:path-effect>
	<inkscape:path-effect  is_visible="true" effect="spiro" id="path-effect3938-5-0-4"></inkscape:path-effect>
	<inkscape:path-effect  is_visible="true" effect="spiro" id="path-effect3889-3-9-8"></inkscape:path-effect>
	<inkscape:path-effect  is_visible="true" effect="spiro" id="path-effect3855-4-3-1"></inkscape:path-effect>
	<inkscape:path-effect  is_visible="true" effect="spiro" id="path-effect3829-8-4-0"></inkscape:path-effect>
	<inkscape:path-effect  is_visible="true" effect="spiro" id="path-effect3829-3-9"></inkscape:path-effect>
	<inkscape:path-effect  is_visible="true" effect="spiro" id="path-effect3855-9-6"></inkscape:path-effect>
	<inkscape:path-effect  is_visible="true" effect="spiro" id="path-effect3889-8-2"></inkscape:path-effect>
	<inkscape:path-effect  is_visible="true" effect="spiro" id="path-effect3938-7-1"></inkscape:path-effect>
	<inkscape:path-effect  is_visible="true" effect="spiro" id="path-effect3960-94-7"></inkscape:path-effect>
	<inkscape:path-effect  is_visible="true" effect="spiro" id="path-effect4085-78-8"></inkscape:path-effect>
	<inkscape:path-effect  is_visible="true" effect="spiro" id="path-effect4147-91-5"></inkscape:path-effect>
	<inkscape:path-effect  is_visible="true" effect="spiro" id="path-effect4181-2-7"></inkscape:path-effect>
	<inkscape:path-effect  is_visible="true" effect="spiro" id="path-effect4181-3-5-5-4"></inkscape:path-effect>
	<inkscape:path-effect  is_visible="true" effect="spiro" id="path-effect4147-7-1-6-1"></inkscape:path-effect>
	<inkscape:path-effect  is_visible="true" effect="spiro" id="path-effect4085-4-0-1-8"></inkscape:path-effect>
	<inkscape:path-effect  is_visible="true" effect="spiro" id="path-effect3960-4-3-2-5"></inkscape:path-effect>
	<inkscape:path-effect  is_visible="true" effect="spiro" id="path-effect3938-5-7-7-9"></inkscape:path-effect>
	<inkscape:path-effect  is_visible="true" effect="spiro" id="path-effect3889-3-1-8-7"></inkscape:path-effect>
	<inkscape:path-effect  is_visible="true" effect="spiro" id="path-effect3855-4-1-8-5"></inkscape:path-effect>
	<inkscape:path-effect  is_visible="true" effect="spiro" id="path-effect3829-8-1-4-3"></inkscape:path-effect>
	<inkscape:path-effect  is_visible="true" effect="spiro" id="path-effect3829-9-8-6"></inkscape:path-effect>
	<inkscape:path-effect  is_visible="true" effect="spiro" id="path-effect3855-7-8-0"></inkscape:path-effect>
	<inkscape:path-effect  is_visible="true" effect="spiro" id="path-effect3889-31-3-4"></inkscape:path-effect>
	<inkscape:path-effect  is_visible="true" effect="spiro" id="path-effect3938-52-4-8"></inkscape:path-effect>
	<inkscape:path-effect  is_visible="true" effect="spiro" id="path-effect3960-2-8-8"></inkscape:path-effect>
	<inkscape:path-effect  is_visible="true" effect="spiro" id="path-effect4085-0-3-8"></inkscape:path-effect>
	<inkscape:path-effect  is_visible="true" effect="spiro" id="path-effect4147-0-7-9"></inkscape:path-effect>
	<inkscape:path-effect  is_visible="true" effect="spiro" id="path-effect4181-32-9-7"></inkscape:path-effect>
	<inkscape:path-effect  is_visible="true" effect="spiro" id="path-effect3829-4-2-0"></inkscape:path-effect>
	<inkscape:path-effect  is_visible="true" effect="spiro" id="path-effect3855-43-0-9"></inkscape:path-effect>
	<inkscape:path-effect  is_visible="true" effect="spiro" id="path-effect3889-0-4-2"></inkscape:path-effect>
	<inkscape:path-effect  is_visible="true" effect="spiro" id="path-effect3938-8-9-5"></inkscape:path-effect>
	<inkscape:path-effect  is_visible="true" effect="spiro" id="path-effect3960-7-4-4"></inkscape:path-effect>
	<inkscape:path-effect  is_visible="true" effect="spiro" id="path-effect4085-6-1-0"></inkscape:path-effect>
	<inkscape:path-effect  is_visible="true" effect="spiro" id="path-effect4147-6-7-5"></inkscape:path-effect>
	<inkscape:path-effect  is_visible="true" effect="spiro" id="path-effect4181-6-7-9"></inkscape:path-effect>
	<inkscape:path-effect  is_visible="true" effect="spiro" id="path-effect4181-4-4-4"></inkscape:path-effect>
	<inkscape:path-effect  is_visible="true" effect="spiro" id="path-effect4147-78-6-6"></inkscape:path-effect>
	<inkscape:path-effect  is_visible="true" effect="spiro" id="path-effect4085-7-1-9"></inkscape:path-effect>
	<inkscape:path-effect  is_visible="true" effect="spiro" id="path-effect3960-3-0-2"></inkscape:path-effect>
	<inkscape:path-effect  is_visible="true" effect="spiro" id="path-effect3938-6-1-2"></inkscape:path-effect>
	<inkscape:path-effect  is_visible="true" effect="spiro" id="path-effect3889-2-7-4"></inkscape:path-effect>
	<inkscape:path-effect  is_visible="true" effect="spiro" id="path-effect3855-46-8-7"></inkscape:path-effect>
	<inkscape:path-effect  is_visible="true" effect="spiro" id="path-effect3829-89-0-7"></inkscape:path-effect>
	<inkscape:path-effect  is_visible="true" effect="spiro" id="path-effect4181-8-8-9"></inkscape:path-effect>
	<inkscape:path-effect  is_visible="true" effect="spiro" id="path-effect4147-9-1-3"></inkscape:path-effect>
	<inkscape:path-effect  is_visible="true" effect="spiro" id="path-effect4085-65-7-6"></inkscape:path-effect>
	<inkscape:path-effect  is_visible="true" effect="spiro" id="path-effect3960-21-8-8"></inkscape:path-effect>
	<inkscape:path-effect  is_visible="true" effect="spiro" id="path-effect3938-0-3-0"></inkscape:path-effect>
	<inkscape:path-effect  is_visible="true" effect="spiro" id="path-effect3889-4-2-2"></inkscape:path-effect>
	<inkscape:path-effect  is_visible="true" effect="spiro" id="path-effect3855-6-8-1"></inkscape:path-effect>
	<inkscape:path-effect  is_visible="true" effect="spiro" id="path-effect3829-47-2-0"></inkscape:path-effect>
	<inkscape:path-effect  is_visible="true" effect="spiro" id="path-effect3829-5-9-8"></inkscape:path-effect>
	<inkscape:path-effect  is_visible="true" effect="spiro" id="path-effect3855-0-8-6"></inkscape:path-effect>
	<inkscape:path-effect  is_visible="true" effect="spiro" id="path-effect3889-40-1-2"></inkscape:path-effect>
	<inkscape:path-effect  is_visible="true" effect="spiro" id="path-effect3938-58-0-8"></inkscape:path-effect>
	<inkscape:path-effect  is_visible="true" effect="spiro" id="path-effect3960-9-9-4"></inkscape:path-effect>
	<inkscape:path-effect  is_visible="true" effect="spiro" id="path-effect4085-5-6-7"></inkscape:path-effect>
	<inkscape:path-effect  is_visible="true" effect="spiro" id="path-effect4147-5-8-2"></inkscape:path-effect>
	<inkscape:path-effect  is_visible="true" effect="spiro" id="path-effect4181-86-8-4"></inkscape:path-effect>
	
		<inkscape:perspective  inkscape:vp_y="0 : 999.99996 : 0" inkscape:vp_x="0 : 12 : 1" sodipodi:type="inkscape:persp3d" inkscape:vp_z="23.999999 : 12 : 1" id="perspective3810-0-0" inkscape:persp3d-origin="12 : 7.9999997 : 1">
		</inkscape:perspective>
</defs>
<sodipodi:namedview  units="px" showgrid="false" inkscape:cy="144.18113" inkscape:cx="445.73959" inkscape:zoom="0.35" borderopacity="1.0" bordercolor="#666666" pagecolor="#ffffff" id="base" inkscape:window-maximized="1" inkscape:window-y="25" inkscape:window-x="0" inkscape:window-height="719" inkscape:window-width="1360" inkscape:pageshadow="2" inkscape:current-layer="layer1" inkscape:pageopacity="0.0" inkscape:document-units="px">
	</sodipodi:namedview>
<g id="layer1" transform="translate(0,-540.36219)" inkscape:label="Capa 1" inkscape:groupmode="layer">
	<path id="rect2985" fill="#05242A" d="M49.596,623.409H464.78c16.09,0,29.133,13.043,29.133,29.132v304.676
		c0,16.089-13.043,29.133-29.133,29.133H49.596c-16.089,0-29.133-13.044-29.133-29.133V652.541
		C20.463,636.452,33.507,623.409,49.596,623.409z"/>
	<path id="path5208" sodipodi:nodetypes="ccccccccc" inkscape:connector-curvature="0" fill="#3E5257" d="M112.231,912.003
		c-1.836,0-3.524,0.886-4.398,2.309l-40.406,65.842c-1.799,2.934,0.612,6.497,4.398,6.498h370.727
		c3.786-0.001,6.197-3.564,4.398-6.498l-40.406-65.842c-0.874-1.423-2.563-2.309-4.398-2.309H112.231z"/>
	<path id="rect4445" fill="#D6D1AE" d="M121.275,708.791H418.01c16.09,0,29.133,13.043,29.133,29.132v76.021
		c0,16.089-13.043,29.133-29.133,29.133H121.275c-16.089,0-29.132-13.044-29.132-29.133v-76.021
		C92.143,721.834,105.186,708.791,121.275,708.791z"/>
	<path id="rect5266" sodipodi:nodetypes="ccsssscccsssssss" inkscape:connector-curvature="0" fill="#BF2032" d="M81.171,655.22
		l-41.416,43.57v157.145c0,24.139,18.472,43.57,41.416,43.57h351.454c22.944,0,41.416-19.432,41.416-43.57V698.79l-41.416-43.57
		H81.171z M151.171,733.79h232.881c22.944,0,41.416,19.434,41.416,43.572s-18.472,43.572-41.416,43.572H151.171
		c-22.944,0-41.416-19.434-41.416-43.572S128.227,733.79,151.171,733.79z"/>
	<path id="rect5245" fill="#4D4D4D" fill-opacity="0.4398" d="M151.171,733.791h232.881c22.874,0,41.416,19.507,41.416,43.571l0,0
		c0,24.064-18.542,43.571-41.416,43.571H151.171c-22.874,0-41.417-19.507-41.417-43.571l0,0
		C109.755,753.298,128.297,733.791,151.171,733.791z"/>
	<g>
		<defs>
			<path id="SVGID_1_" d="M151.171,733.791h232.882c22.874,0,41.416,19.507,41.416,43.571l0,0c0,24.064-18.542,43.571-41.416,43.571
				H151.171c-22.874,0-41.416-19.507-41.416-43.571l0,0C109.755,753.298,128.297,733.791,151.171,733.791z"/>
		</defs>
		<clipPath id="SVGID_2_">
			<use xlink:href="#SVGID_1_"  overflow="visible"/>
		</clipPath>
		<circle id="path5249" clip-path="url(#SVGID_2_)" fill="#383846" cx="378.684" cy="777.005" r="95.357"/>
	</g>
	<g>
		<defs>
			<circle id="SVGID_3_" cx="380.165" cy="777.379" r="42.143"/>
		</defs>
		<clipPath id="SVGID_4_">
			<use xlink:href="#SVGID_3_"  overflow="visible"/>
		</clipPath>
		<path id="path5227" inkscape:connector-curvature="0" clip-path="url(#SVGID_4_)" fill="#FFFFFF" d="M380.165,726.301
			c-28.21,0-51.078,22.868-51.079,51.078l0,0c0,28.21,22.868,51.079,51.078,51.079h0.001c28.21,0,51.078-22.869,51.078-51.079l0,0
			C431.243,749.169,408.375,726.301,380.165,726.301z M374.834,747.359v3.365c0,2.061,1.659,3.719,3.72,3.719h3.224
			c2.061,0,3.719-1.659,3.719-3.719v-3.345c4.356,0.77,8.493,2.479,12.123,5.007l-2.376,2.376c-1.457,1.457-1.457,3.803,0,5.26
			l2.279,2.279c1.457,1.457,3.803,1.457,5.26,0l2.359-2.36c2.539,3.622,4.261,7.753,5.044,12.106h-3.366
			c-2.061,0-3.719,1.659-3.719,3.719v3.224c0,2.06,1.658,3.719,3.719,3.719h3.346c-0.77,4.356-2.479,8.493-5.007,12.124
			l-2.376-2.376c-0.729-0.729-1.679-1.093-2.629-1.093c-0.951,0-1.902,0.365-2.631,1.093l-2.279,2.279
			c-1.457,1.457-1.457,3.804,0,5.261l2.359,2.359c-3.622,2.539-7.753,4.26-12.106,5.043v-3.366c0-2.061-1.658-3.72-3.719-3.72
			h-3.224c-2.061,0-3.72,1.659-3.72,3.72v3.347c-4.356-0.77-8.493-2.479-12.123-5.006l2.377-2.377c1.457-1.457,1.457-3.804,0-5.261
			l-2.28-2.279c-0.729-0.729-1.68-1.093-2.63-1.093c-0.951,0-1.901,0.365-2.63,1.093l-2.359,2.359
			c-2.54-3.622-4.262-7.753-5.045-12.107h3.367c2.061,0,3.719-1.659,3.719-3.719v-3.224c0-2.061-1.658-3.719-3.719-3.719h-3.347
			c0.771-4.356,2.479-8.494,5.007-12.124l2.377,2.377c1.457,1.457,3.803,1.457,5.26,0l2.28-2.279c1.457-1.457,1.457-3.803,0-5.26
			l-2.361-2.36C366.35,749.862,370.48,748.141,374.834,747.359z"/>
	</g>
	<g>
		<defs>
			<path id="SVGID_5_" d="M151.171,733.791h232.882c22.874,0,41.416,19.507,41.416,43.571l0,0c0,24.064-18.542,43.571-41.416,43.571
				H151.171c-22.874,0-41.416-19.507-41.416-43.571l0,0C109.755,753.298,128.297,733.791,151.171,733.791z"/>
		</defs>
		<clipPath id="SVGID_6_">
			<use xlink:href="#SVGID_5_"  overflow="visible"/>
		</clipPath>
		<circle id="circle5251" clip-path="url(#SVGID_6_)" fill="#383846" cx="157.255" cy="774.148" r="95.357"/>
	</g>
	<g>
		<defs>
			<circle id="SVGID_7_" cx="155.911" cy="777.379" r="42.143"/>
		</defs>
		<clipPath id="SVGID_8_">
			<use xlink:href="#SVGID_7_"  overflow="visible"/>
		</clipPath>
		<path id="path5247" inkscape:connector-curvature="0" clip-path="url(#SVGID_8_)" fill="#FFFFFF" d="M155.911,726.301
			c-28.209,0-51.079,22.868-51.079,51.078l0,0c0,28.21,22.868,51.079,51.078,51.079c0,0,0,0,0.001,0
			c28.21,0,51.078-22.869,51.078-51.079l0,0C206.989,749.169,184.121,726.301,155.911,726.301z M150.58,747.359v3.365
			c0,2.061,1.659,3.719,3.719,3.719h3.224c2.061,0,3.719-1.659,3.719-3.719v-3.345c4.356,0.77,8.493,2.479,12.123,5.007
			l-2.376,2.376c-1.457,1.457-1.457,3.803,0,5.26l2.28,2.279c1.457,1.457,3.802,1.457,5.259,0l2.359-2.36
			c2.54,3.622,4.26,7.753,5.043,12.106h-3.365c-2.061,0-3.719,1.659-3.719,3.719v3.224c0,2.06,1.659,3.719,3.719,3.719h3.345
			c-0.77,4.356-2.479,8.493-5.007,12.124l-2.376-2.376c-0.729-0.729-1.679-1.093-2.629-1.093s-1.901,0.365-2.63,1.093l-2.28,2.279
			c-1.457,1.457-1.457,3.804,0,5.261l2.36,2.359c-3.622,2.539-7.753,4.26-12.106,5.043v-3.366c0-2.061-1.659-3.72-3.719-3.72h-3.224
			c-2.061,0-3.719,1.659-3.719,3.72v3.347c-4.356-0.77-8.493-2.479-12.124-5.006l2.377-2.377c1.457-1.457,1.457-3.804,0-5.261
			l-2.28-2.279c-0.729-0.729-1.68-1.093-2.63-1.093s-1.9,0.365-2.629,1.093l-2.36,2.359c-2.54-3.622-4.262-7.753-5.045-12.107h3.368
			c2.061,0,3.719-1.659,3.719-3.719v-3.224c0-2.061-1.659-3.719-3.719-3.719h-3.347c0.77-4.356,2.479-8.494,5.007-12.124
			l2.377,2.377c1.457,1.457,3.802,1.457,5.259,0l2.28-2.279c1.457-1.457,1.457-3.803,0-5.26l-2.36-2.36
			C142.095,749.862,146.227,748.141,150.58,747.359z"/>
	</g>
	<circle id="path4429" fill="#2C2C2C" fill-opacity="0.5183" cx="42.143" cy="647.362" r="12.143"/>
	<circle id="circle4431" fill="#2C2C2C" fill-opacity="0.5183" cx="469.286" cy="647.362" r="12.143"/>
	<circle id="circle4433" fill="#2C2C2C" fill-opacity="0.5183" cx="469.286" cy="963.077" r="12.143"/>
	<circle id="circle4435" fill="#2C2C2C" fill-opacity="0.5183" cx="43.571" cy="963.077" r="12.143"/>
	<circle id="circle4437" fill="#253033" fill-opacity="0.8953" cx="335" cy="954.505" r="12.143"/>
	<ellipse id="circle4439" fill="#253033" fill-opacity="0.8953" cx="392.143" cy="968.79" rx="9.286" ry="10.714"/>
	<circle id="circle4441" fill="#253033" fill-opacity="0.8953" cx="170.714" cy="954.505" r="12.143"/>
	<ellipse id="ellipse4443" fill="#253033" fill-opacity="0.8953" cx="113.571" cy="968.79" rx="9.286" ry="10.714"/>
	<g>
		<defs>
			<path id="SVGID_9_" d="M49.911,623.408h414.554c16.264,0,29.448,13.043,29.448,29.133v304.676
				c0,16.089-13.185,29.132-29.448,29.132H49.911c-16.263,0-29.448-13.043-29.448-29.132V652.541
				C20.463,636.452,33.648,623.408,49.911,623.408z"/>
		</defs>
		<clipPath id="SVGID_10_">
			<use xlink:href="#SVGID_9_"  overflow="visible"/>
		</clipPath>
		
			<g id="g5055" transform="matrix(1.0265958,0,0,1.0156115,-447.36858,-489.97344)" clip-path="url(#SVGID_10_)" filter="url(#filter5079)">
			<g id="path5057_1_" inkscape:connector-curvature="0">
				<path opacity="0.3979" d="M751.739,1303.976l11.283,42.112c-12.416,16.432-19.153,36.455-19.195,57.051
					c-0.001,52.441,42.511,94.954,94.952,94.955c52.442,0,94.955-42.512,94.955-94.953c0-0.001,0-0.002,0-0.002
					c0-52.442-42.513-94.953-94.955-94.953c-13.536,0.04-26.906,2.975-39.217,8.606L751.739,1303.976z"/>
			</g>
			<g id="g5059_1_" transform="matrix(1.0435012,0,0,1.043505,787.49531,1347.4631)">
				<g id="path5061_1_" inkscape:connector-curvature="0">
					<g opacity="0.3979">
						<path d="M86.067-0.002c-24.602,0-29.216,35.042-15.376,35.042C84.529,35.04,110.67-0.002,86.067-0.002z M48.057,4.292
							c-0.391-0.001-0.802,0.024-1.235,0.081c-13.845,1.797-8.977,25.875-1.604,26.324C52.356,31.134,60.167,4.334,48.057,4.292
							L48.057,4.292z M24.497,13.828c-0.846-0.055-1.787,0.109-2.83,0.539c-11.128,4.593-1.689,23.547,4.544,22.274
							C31.866,35.487,32.676,14.362,24.497,13.828z M6.336,28.677c-0.967-0.032-2.014,0.288-3.128,1.057
							c-8.907,6.155,2.995,21.025,8.235,18.719C16.03,46.434,13.109,28.904,6.336,28.677z M57.206,40.054
							c-19.097-0.323-44.288,9.259-48.584,28.499c-4.653,20.821,19.153,49.706,43.992,49.706c12.22,0,26.314-11.035,28.952-25.013
							c2.014-10.659-23.699-6.387-22.775,0.666c1.107,8.454-6.203,12.628-13.361,7.178c-22.787-17.349,37.73-26.003,33.741-49.705
							C77.93,44.008,68.664,40.248,57.206,40.054z"/>
					</g>
				</g>
			</g>
		</g>
	</g>
	<g id="g5050" transform="translate(-424.55545,-466.58596)">
		<path id="path5428" inkscape:connector-curvature="0" fill="#13A2EE" d="M751.739,1303.977l11.283,42.111
			c-12.417,16.432-19.153,36.455-19.195,57.051c-0.001,52.441,42.511,94.954,94.953,94.955c52.441,0,94.954-42.512,94.955-94.954
			v-0.001c-0.001-52.441-42.514-94.953-94.955-94.953c-13.536,0.04-26.907,2.975-39.217,8.605L751.739,1303.977z"/>
		<g id="g3773-2-4-4-8-7-0" transform="matrix(1.0435012,0,0,1.043505,787.49531,1347.4631)">
			<path id="path3775-2-1-8-4-2-1" inkscape:connector-curvature="0" fill="#FFFFFF" d="M86.067-0.001
				c-24.602,0-29.216,35.042-15.376,35.042C84.53,35.04,110.67-0.001,86.067-0.001z M48.057,4.292c-0.39,0-0.802,0.024-1.235,0.08
				c-13.845,1.797-8.976,25.876-1.604,26.325C52.356,31.134,60.167,4.334,48.057,4.292L48.057,4.292z M24.497,13.829
				c-0.846-0.054-1.787,0.109-2.83,0.539c-11.128,4.593-1.689,23.548,4.545,22.273C31.866,35.488,32.676,14.363,24.497,13.829z
				 M6.336,28.677c-0.968-0.032-2.014,0.288-3.128,1.057C-5.7,35.89,6.203,50.759,11.444,48.453
				C16.03,46.435,13.109,28.905,6.336,28.677z M57.205,40.055c-19.098-0.322-44.287,9.259-48.584,28.498
				C3.969,89.375,27.774,118.26,52.614,118.26c12.22,0,26.314-11.035,28.952-25.013c2.014-10.658-23.699-6.386-22.775,0.666
				c1.107,8.454-6.202,12.628-13.36,7.178C22.644,83.742,83.161,75.088,79.172,51.386C77.93,44.009,68.664,40.249,57.205,40.055z"/>
		</g>
	</g>
</g>
</svg>
