<?xml version="1.0" encoding="utf-8"?>
<!-- Generator: Adobe Illustrator 16.0.0, SVG Export Plug-In . SVG Version: 6.00 Build 0)  -->
<!DOCTYPE svg PUBLIC "-//W3C//DTD SVG 1.1//EN" "http://www.w3.org/Graphics/SVG/1.1/DTD/svg11.dtd">
<svg version="1.1"
	 id="svg2" xmlns:dc="http://purl.org/dc/elements/1.1/" xmlns:cc="http://creativecommons.org/ns#" xmlns:rdf="http://www.w3.org/1999/02/22-rdf-syntax-ns#" xmlns:svg="http://www.w3.org/2000/svg" xmlns:sodipodi="http://sodipodi.sourceforge.net/DTD/sodipodi-0.dtd" xmlns:inkscape="http://www.inkscape.org/namespaces/inkscape" sodipodi:docname="nvidia.svg" inkscape:version="0.48.4 r9939"
	 xmlns="http://www.w3.org/2000/svg" xmlns:xlink="http://www.w3.org/1999/xlink" x="0px" y="0px" width="612px" height="792px"
	 viewBox="0 0 612 792" enable-background="new 0 0 612 792" xml:space="preserve">
<sodipodi:namedview  gridtolerance="10" objecttolerance="10" guidetolerance="10" showgrid="false" inkscape:cy="227.68665" inkscape:cx="219.21123" inkscape:zoom="0.23046875" borderopacity="1" bordercolor="#666666" pagecolor="#ffffff" id="namedview44" inkscape:window-maximized="0" inkscape:window-y="39" inkscape:window-x="15" inkscape:window-height="480" inkscape:window-width="640" inkscape:pageshadow="2" inkscape:current-layer="svg2" inkscape:pageopacity="0">
	</sodipodi:namedview>
<g id="g4">
	<path id="path6" inkscape:connector-curvature="0" fill="#FFFFFF" d="M564.128,392.474c0,144.514-117.152,261.654-261.654,261.654
		c-144.513,0-261.654-117.152-261.654-261.654c0-144.513,117.153-261.654,261.654-261.654
		C446.987,130.82,564.128,247.973,564.128,392.474"/>
	<g id="g8" transform="matrix(0.94343,0,0,0.94343,-644.62,-495.31)">
		<path id="path10" inkscape:connector-curvature="0" fill="#7BC143" d="M1007.617,645.926
			c-109.275,0-204.805,58.702-256.92,146.235c-26.595,44.669-41.908,96.82-41.908,152.594
			c0,165.036,133.791,298.828,298.828,298.828c0.175,0,0.347,0,0.523,0V645.926C1007.967,645.926,1007.792,645.926,1007.617,645.926
			 M1040.046,647.682c1.121,0.121,2.245,0.24,3.362,0.374C1042.294,647.924,1041.164,647.803,1040.046,647.682 M1063.654,651.156
			c2.39,0.454,4.76,0.982,7.134,1.494C1068.412,652.138,1066.052,651.611,1063.654,651.156 M1074.484,653.472
			c0.982,0.225,1.972,0.438,2.951,0.673C1076.458,653.911,1075.464,653.697,1074.484,653.472 M1129.503,671.85
			c0.926,0.415,1.844,0.846,2.765,1.271C1131.348,672.698,1130.429,672.265,1129.503,671.85 M1137.684,675.698
			c1.921,0.931,3.855,1.868,5.753,2.839C1141.538,677.565,1139.607,676.63,1137.684,675.698 M1219.073,1155.879
			c-3.373,3.38-6.816,6.684-10.347,9.899C1212.255,1162.564,1215.702,1159.256,1219.073,1155.879 M1110.705,1225.314
			c-2.283,0.841-4.562,1.643-6.872,2.427C1106.135,1226.959,1108.429,1226.151,1110.705,1225.314 M1103.833,1227.742
			c-1.828,0.622-3.686,1.208-5.529,1.794C1100.152,1228.947,1102,1228.365,1103.833,1227.742 M1096.475,1230.133
			c-4.549,1.415-9.144,2.721-13.784,3.922C1087.325,1232.859,1091.932,1231.546,1096.475,1230.133 M1046.116,1241.116
			c-2.488,0.32-4.963,0.6-7.47,0.859C1041.144,1241.717,1043.636,1241.434,1046.116,1241.116 M1038.646,1241.975
			c-2.112,0.217-4.227,0.424-6.351,0.598C1034.421,1242.398,1036.531,1242.193,1038.646,1241.975"/>
		<path id="path12" inkscape:connector-curvature="0" fill="#081C3E" d="M1008.144,645.926v597.656
			c164.797-0.283,298.302-133.97,298.302-298.828c0-55.765-15.317-107.913-41.908-152.594
			c-52.028-87.401-147.334-146.055-256.395-146.235"/>
	</g>
	<path id="path14" inkscape:connector-curvature="0" fill-opacity="0.235" d="M306.705,249.013v3.512
		c0-1.168,0.094-2.299,0.187-3.437C306.838,249.07,306.758,249.03,306.705,249.013 M308.498,250.806v3.512
		c0-1.168,0.094-2.299,0.187-3.437C308.631,250.863,308.551,250.823,308.498,250.806 M310.254,252.561v3.512
		c0-1.168,0.094-2.299,0.187-3.437C310.387,252.619,310.307,252.579,310.254,252.561 M312.047,254.354v3.512
		c0-1.168,0.094-2.299,0.187-3.437C312.18,254.412,312.1,254.372,312.047,254.354 M313.803,256.11v3.512
		c0-1.168,0.094-2.299,0.187-3.437C313.935,256.167,313.855,256.128,313.803,256.11 M315.596,257.903v3.512
		c0-1.168,0.094-2.299,0.187-3.437C315.728,257.96,315.648,257.921,315.596,257.903 M317.389,259.696v3.512
		c0-1.168,0.094-2.299,0.187-3.437C317.521,259.753,317.441,259.714,317.389,259.696 M319.144,261.452v3.512
		c0-1.168,0.094-2.299,0.187-3.437C319.277,261.509,319.197,261.47,319.144,261.452 M320.937,263.245v3.512
		c0-1.168,0.094-2.299,0.187-3.437C321.07,263.302,320.99,263.263,320.937,263.245 M322.693,265.001v3.512
		c0-1.168,0.094-2.299,0.187-3.437C322.826,265.058,322.746,265.018,322.693,265.001 M324.486,266.794v3.512
		c0-1.168,0.094-2.299,0.187-3.437C324.619,266.851,324.539,266.811,324.486,266.794 M326.279,268.587v3.512
		c0-1.168,0.094-2.299,0.187-3.437C326.412,268.644,326.332,268.604,326.279,268.587 M328.035,270.343v3.512
		c0-1.168,0.094-2.298,0.187-3.437C328.168,270.4,328.088,270.361,328.035,270.343 M329.828,272.136v3.512
		c0-1.168,0.094-2.298,0.187-3.437C329.961,272.193,329.881,272.154,329.828,272.136 M331.584,273.892v3.512
		c0-1.168,0.094-2.298,0.187-3.437C331.717,273.949,331.637,273.91,331.584,273.892 M333.377,275.685v3.512
		c0-1.168,0.094-2.298,0.187-3.437C333.51,275.742,333.43,275.703,333.377,275.685 M335.17,277.477v3.512
		c0-1.168,0.094-2.298,0.187-3.437C335.303,277.535,335.223,277.496,335.17,277.477 M336.926,279.233v3.101
		c0.019-1.021,0.104-2.023,0.187-3.025C337.059,279.291,336.978,279.251,336.926,279.233 M336.926,282.334
		c-5.844-0.589-11.84-0.899-17.965-0.859c-1.523,0.01-3.056,0.023-4.595,0.075c-2.559,0.087-5.114,0.327-7.657,0.524
		c-0.021,0.002-0.017-0.001-0.037,0c-86.648,6.978-161.594,80.385-161.594,80.385s16.931,48.932,59.393,87.855
		c0.344,0.323,0.698,0.65,1.046,0.972c0.412,0.373,0.815,0.75,1.232,1.121c0.208,0.189,0.425,0.372,0.635,0.562
		c0.083,0.078,0.177,0.146,0.262,0.225c0.065,0.059,0.121,0.128,0.187,0.187c0.927,0.845,1.849,1.704,2.802,2.54
		c0.046,0.041,0.103,0.07,0.149,0.112c0.526,0.479,1.035,0.979,1.569,1.457c0.883,0.804,1.783,1.596,2.689,2.391
		c0.013,0.012,0.024,0.024,0.037,0.037c0.02,0.018,0.055,0.019,0.075,0.037c0.019,0.018,0.019,0.057,0.037,0.075
		c0.026,0.022,0.048,0.051,0.075,0.075c0.669,0.61,1.334,1.225,2.018,1.83c0.129,0.119,0.244,0.254,0.375,0.374
		c0.156,0.141,0.329,0.27,0.485,0.411c0.046,0.041,0.103,0.071,0.149,0.112c0.385,0.357,0.769,0.727,1.158,1.083
		c0.032,0.029,0.08,0.044,0.112,0.075c0.026,0.022,0.049,0.052,0.075,0.075c0.481,0.44,0.968,0.871,1.457,1.308
		c0.683,0.623,1.358,1.25,2.055,1.868c0.291,0.264,0.566,0.522,0.859,0.784c0.007,0.006,0.031-0.006,0.037,0
		c0.106,0.094,0.192,0.206,0.299,0.299c0.386,0.352,0.768,0.697,1.158,1.046c0.49,0.447,0.959,0.9,1.457,1.345
		c0.007,0.006,0.031-0.006,0.037,0c0.482,0.438,0.968,0.871,1.457,1.308c0.084,0.078,0.178,0.147,0.262,0.225
		c0.404,0.368,0.786,0.755,1.195,1.121c0.02,0.019,0.055,0.02,0.076,0.037c0.064,0.058,0.122,0.13,0.187,0.187
		c0.409,0.372,0.818,0.751,1.232,1.121c0.02,0.019,0.055,0.02,0.076,0.037c0.464,0.424,0.912,0.851,1.382,1.271
		c0.032,0.031,0.079,0.045,0.112,0.076c0.098,0.087,0.201,0.174,0.299,0.262c0.364,0.331,0.715,0.679,1.083,1.009
		c0.032,0.029,0.08,0.044,0.112,0.075c0.636,0.579,1.256,1.181,1.905,1.756c0.304,0.274,0.59,0.549,0.896,0.822
		c0.045,0.043,0.104,0.069,0.149,0.112c0.161,0.145,0.323,0.305,0.485,0.448c0.288,0.262,0.568,0.524,0.859,0.784
		c0.045,0.043,0.104,0.069,0.149,0.112c0.763,0.695,1.535,1.403,2.316,2.092c0.164,0.146,0.322,0.301,0.485,0.448
		c0.059,0.055,0.129,0.096,0.187,0.149c0.486,0.443,0.962,0.903,1.457,1.345c0.368,0.344,0.747,0.667,1.121,1.009
		c0.066,0.059,0.121,0.128,0.187,0.187c0.071,0.065,0.153,0.121,0.225,0.187c0.013,0.012,0.024,0.026,0.037,0.037
		c0.459,0.418,0.916,0.817,1.382,1.232c0.026,0.023,0.049,0.05,0.075,0.075c0.411,0.375,0.815,0.748,1.232,1.121
		c0.361,0.337,0.718,0.673,1.083,1.009c0.197,0.177,0.399,0.347,0.598,0.523c0.186,0.174,0.373,0.351,0.561,0.523
		c0.263,0.238,0.52,0.474,0.784,0.71c0.059,0.056,0.128,0.095,0.187,0.149c0.398,0.362,0.792,0.724,1.195,1.083
		c0.097,0.09,0.202,0.171,0.299,0.262c0.739,0.673,1.485,1.353,2.241,2.018c0.139,0.125,0.271,0.25,0.411,0.374
		c0.109,0.104,0.226,0.196,0.336,0.299c0.515,0.469,1.008,0.955,1.531,1.421c0.448,0.407,0.889,0.827,1.345,1.232
		c0.019,0.018,0.055,0.019,0.075,0.036c0.085,0.076,0.176,0.148,0.262,0.226c0.29,0.263,0.567,0.522,0.859,0.784
		c0.124,0.115,0.25,0.22,0.375,0.336c0.369,0.335,0.747,0.674,1.121,1.009c0.123,0.114,0.25,0.221,0.374,0.335
		c0.544,0.495,1.09,1.005,1.644,1.494c0.45,0.408,0.888,0.829,1.345,1.232c0.365,0.333,0.75,0.642,1.121,0.973
		c0.122,0.114,0.251,0.221,0.375,0.336c0.669,0.607,1.333,1.229,2.018,1.829c0.177,0.16,0.344,0.327,0.523,0.485
		c0.526,0.482,1.033,0.979,1.569,1.457c0.535,0.501,1.099,0.96,1.644,1.457c0.064,0.061,0.122,0.127,0.187,0.187
		c0.322,0.293,0.646,0.568,0.972,0.86c0.078,0.071,0.146,0.152,0.225,0.225c0.097,0.091,0.202,0.171,0.299,0.262
		c0.319,0.29,0.647,0.569,0.972,0.859c0.142,0.13,0.268,0.28,0.411,0.411c0.091,0.085,0.208,0.14,0.299,0.225
		c0.353,0.319,0.688,0.653,1.046,0.972c0.083,0.079,0.177,0.146,0.262,0.225c0.374,0.34,0.741,0.671,1.121,1.009
		c0.122,0.115,0.251,0.223,0.374,0.336c0.301,0.273,0.592,0.55,0.896,0.822c0.663,0.607,1.302,1.23,1.979,1.83
		c0.02,0.018,0.055,0.02,0.076,0.037c0.385,0.349,0.767,0.699,1.158,1.046c0.11,0.103,0.226,0.196,0.336,0.299
		c0.372,0.337,0.745,0.674,1.121,1.009c0.123,0.115,0.25,0.222,0.374,0.336c0.286,0.26,0.57,0.526,0.859,0.784
		c0.794,0.729,1.61,1.447,2.428,2.167c0.177,0.159,0.346,0.326,0.523,0.485c0.569,0.522,1.137,1.052,1.719,1.569
		c0.738,0.676,1.481,1.351,2.241,2.018c0.151,0.137,0.296,0.275,0.448,0.411c0.662,0.608,1.337,1.229,2.018,1.83
		c0.059,0.055,0.128,0.095,0.187,0.149c0.434,0.394,0.865,0.805,1.308,1.195c0.059,0.056,0.128,0.095,0.187,0.149
		c0.396,0.36,0.792,0.727,1.195,1.083c0.098,0.092,0.201,0.17,0.299,0.262c0.324,0.294,0.643,0.605,0.972,0.896
		c0.173,0.164,0.348,0.323,0.523,0.485c0.384,0.347,0.769,0.702,1.158,1.046c0.11,0.103,0.226,0.196,0.336,0.299
		c0.348,0.314,0.693,0.622,1.046,0.934c0.148,0.14,0.299,0.271,0.448,0.411c0.256,0.232,0.489,0.479,0.747,0.71
		c0.764,0.702,1.526,1.401,2.316,2.092c0.171,0.154,0.352,0.296,0.524,0.448c0.595,0.548,1.183,1.103,1.792,1.644
		c0.549,0.502,1.119,0.997,1.681,1.494c0.123,0.115,0.25,0.222,0.374,0.336c0.191,0.172,0.368,0.352,0.561,0.523
		c0.062,0.053,0.127,0.097,0.187,0.149c0.446,0.41,0.891,0.827,1.345,1.232c0.66,0.607,1.338,1.193,2.018,1.793
		c0.187,0.176,0.372,0.348,0.562,0.523c0.783,0.705,1.578,1.436,2.391,2.129c0.59,0.556,1.186,1.132,1.793,1.681
		c0.019,0.019,0.055,0.02,0.075,0.037c0.468,0.423,0.94,0.852,1.42,1.271c0.026,0.024,0.049,0.051,0.075,0.075
		c0.339,0.297,0.664,0.603,1.009,0.896c0.105,0.094,0.192,0.206,0.299,0.299c0.059,0.056,0.128,0.095,0.187,0.149
		c0.326,0.286,0.64,0.576,0.972,0.859c0.086,0.077,0.175,0.148,0.262,0.225c0.091,0.085,0.171,0.178,0.262,0.263
		c0.314,0.273,0.615,0.55,0.934,0.822c0.346,0.326,0.694,0.646,1.046,0.972c0.181,0.156,0.341,0.33,0.523,0.485
		c0.511,0.481,1.045,0.942,1.569,1.42c0.561,0.527,1.143,1.048,1.719,1.569c0.052,0.049,0.099,0.101,0.149,0.149
		c0.419,0.378,0.844,0.747,1.271,1.121c0.078,0.073,0.146,0.151,0.225,0.225c0.262,0.228,0.521,0.446,0.784,0.673
		c0.073,0.064,0.151,0.122,0.225,0.187c0.637,0.601,1.285,1.195,1.942,1.793c0.014,0.012,0.024,0.025,0.037,0.037
		c0.347,0.313,0.693,0.624,1.046,0.934c0.365,0.343,0.75,0.668,1.122,1.009c0.086,0.076,0.174,0.148,0.262,0.225
		c0.39,0.368,0.797,0.719,1.195,1.083c0.078,0.07,0.145,0.154,0.225,0.225c0.646,0.612,1.31,1.227,1.979,1.83
		c0.032,0.031,0.078,0.044,0.112,0.075c0.432,0.389,0.866,0.774,1.308,1.158c0.064,0.062,0.122,0.126,0.187,0.187
		c0.188,0.163,0.37,0.324,0.561,0.485c0.211,0.188,0.421,0.374,0.635,0.561c0.104,0.099,0.194,0.202,0.299,0.299
		c0.174,0.152,0.347,0.298,0.523,0.448c0.198,0.177,0.396,0.348,0.598,0.523c0.13,0.122,0.242,0.251,0.374,0.374
		c0.161,0.141,0.322,0.271,0.485,0.412c0.399,0.368,0.787,0.756,1.195,1.121c0.087,0.075,0.173,0.149,0.262,0.225
		c0.007,0.006,0.031-0.006,0.037,0c0.012,0.011,0.025,0.026,0.037,0.037c0.071,0.065,0.152,0.12,0.225,0.187
		c0.384,0.364,0.766,0.722,1.158,1.083c0.013,0.011,0.023,0.026,0.037,0.037c0.213,0.188,0.421,0.372,0.635,0.561
		c0.13,0.121,0.242,0.251,0.374,0.374c0.135,0.117,0.274,0.22,0.411,0.336c0.178,0.157,0.343,0.328,0.523,0.485
		c0.654,0.619,1.339,1.222,2.018,1.83c0.014,0.012,0.024,0.024,0.037,0.037c0.309,0.275,0.62,0.547,0.934,0.822
		c0.649,0.614,1.306,1.225,1.979,1.83c0.026,0.023,0.049,0.05,0.075,0.075c0.448,0.401,0.886,0.798,1.345,1.195
		c0.052,0.048,0.098,0.102,0.149,0.149c0.074,0.064,0.149,0.123,0.225,0.187c0.227,0.2,0.445,0.397,0.673,0.598
		c0.523,0.496,1.066,0.967,1.606,1.457c0.585,0.552,1.188,1.1,1.793,1.644c0.052,0.049,0.097,0.1,0.149,0.149
		c0.408,0.364,0.815,0.723,1.232,1.083c0.091,0.086,0.17,0.176,0.262,0.262c0.035,0.028,0.078,0.045,0.112,0.075
		c0.338,0.3,0.666,0.599,1.009,0.896c0.128,0.12,0.244,0.253,0.375,0.374c0.02,0.018,0.054,0.021,0.075,0.037
		c0.323,0.289,0.641,0.572,0.972,0.859c0.154,0.146,0.293,0.303,0.448,0.448c0.007,0.006,0.029-0.006,0.037,0
		c0.454,0.424,0.914,0.851,1.382,1.271c0.027,0.022,0.048,0.052,0.075,0.075c0.245,0.219,0.498,0.418,0.747,0.635
		c0.706,0.674,1.427,1.356,2.167,2.018c0.013,0.012,0.023,0.025,0.037,0.037c0.472,0.421,0.935,0.855,1.42,1.271
		c0.026,0.025,0.049,0.051,0.075,0.075c0.46,0.41,0.909,0.828,1.382,1.232c0.039,0.036,0.073,0.075,0.112,0.112
		c0.448,0.399,0.885,0.803,1.345,1.195c0.052,0.049,0.097,0.101,0.149,0.149c0.437,0.389,0.859,0.774,1.308,1.158
		c0.308,0.288,0.62,0.574,0.934,0.859c0.214,0.186,0.418,0.376,0.635,0.561c0.256,0.24,0.523,0.472,0.784,0.71
		c0.227,0.199,0.442,0.402,0.673,0.598c0.052,0.05,0.097,0.101,0.149,0.149c0.404,0.36,0.78,0.729,1.195,1.083
		c0.389,0.366,0.796,0.723,1.195,1.083c0.095,0.082,0.167,0.181,0.262,0.262c0.473,0.445,0.968,0.869,1.457,1.308
		c0.116,0.109,0.22,0.228,0.336,0.336c0.372,0.33,0.738,0.646,1.121,0.973c0.586,0.553,1.181,1.1,1.793,1.643
		c0.026,0.024,0.049,0.051,0.075,0.076c0.352,0.312,0.687,0.626,1.046,0.934c0.112,0.1,0.224,0.198,0.336,0.299
		c0.04,0.035,0.073,0.075,0.112,0.112c0.34,0.301,0.661,0.599,1.009,0.896c0.1,0.089,0.198,0.172,0.299,0.262
		c0.064,0.061,0.122,0.125,0.187,0.187c0.328,0.29,0.636,0.572,0.972,0.859c0.582,0.553,1.184,1.101,1.793,1.644
		c0.064,0.061,0.122,0.125,0.187,0.187c0.312,0.274,0.616,0.55,0.934,0.822c0.111,0.1,0.224,0.198,0.336,0.299
		c0.078,0.072,0.146,0.15,0.225,0.225c0.299,0.264,0.591,0.523,0.896,0.784c0.086,0.077,0.176,0.146,0.262,0.225
		c0.116,0.109,0.219,0.227,0.336,0.336c0.287,0.253,0.565,0.496,0.859,0.747c0.125,0.112,0.249,0.225,0.374,0.336
		c0.264,0.247,0.517,0.502,0.784,0.747c0.121,0.104,0.251,0.194,0.374,0.299c0.125,0.112,0.248,0.225,0.375,0.336
		c0.27,0.254,0.546,0.494,0.822,0.747c0.08,0.069,0.144,0.155,0.225,0.225c0.473,0.428,0.928,0.85,1.42,1.271
		c0.138,0.124,0.272,0.25,0.411,0.374c0.331,0.312,0.668,0.625,1.009,0.934c0.013,0.012,0.023,0.026,0.037,0.037
		c0.234,0.211,0.471,0.426,0.71,0.635c0.013,0.012,0.023,0.025,0.037,0.037c0.239,0.21,0.466,0.427,0.71,0.635
		c0.234,0.213,0.471,0.424,0.71,0.635c0.026,0.023,0.049,0.05,0.075,0.075c0.226,0.198,0.442,0.4,0.673,0.598
		c0.543,0.492,1.076,1.013,1.644,1.494c0.384,0.347,0.767,0.7,1.158,1.046c78.95-34.129,137.784-106.001,153.67-192.888
		c0.016-0.087,0.021-0.175,0.037-0.262c-0.483-0.473-1.099-0.991-1.793-1.531c0.046-0.036,0.104-0.075,0.149-0.112
		c-0.495-0.501-1.15-1.056-1.905-1.644c0.046-0.036,0.104-0.075,0.149-0.112c-0.498-0.505-1.184-1.089-1.942-1.681
		c0.046-0.036,0.105-0.077,0.149-0.112c-0.503-0.51-1.174-1.082-1.942-1.681c0.049-0.036,0.105-0.075,0.149-0.112
		c-0.503-0.508-1.177-1.047-1.942-1.644c0.055-0.038,0.14-0.073,0.187-0.112c-0.505-0.512-1.21-1.081-1.979-1.681
		c0.06-0.038,0.139-0.072,0.187-0.112c-0.503-0.51-1.179-1.084-1.942-1.681c0.059-0.032,0.145-0.04,0.186-0.075
		c-0.502-0.51-1.178-1.084-1.941-1.681c0.046-0.04,0.103-0.073,0.148-0.112c-2.295-2.326-7.483-5.712-13.746-9.339
		c-0.486-0.496-1.013-0.979-1.53-1.494c-0.173-0.167-0.349-0.355-0.524-0.524c-0.076-0.08-0.146-0.182-0.225-0.262
		c-0.112-0.11-0.222-0.223-0.336-0.336c-0.246-0.247-0.53-0.494-0.784-0.746c-0.158-0.154-0.323-0.33-0.485-0.485
		c-0.18-0.188-0.375-0.407-0.561-0.598c-0.249-0.251-0.526-0.528-0.783-0.784c-0.152-0.148-0.332-0.299-0.485-0.448
		c-0.191-0.2-0.401-0.432-0.598-0.635c-0.251-0.254-0.526-0.526-0.784-0.784c-0.146-0.142-0.301-0.307-0.448-0.448
		c-0.191-0.2-0.402-0.432-0.598-0.635c-0.258-0.259-0.558-0.521-0.823-0.784c-0.134-0.131-0.274-0.28-0.411-0.411
		c-0.087-0.091-0.173-0.207-0.262-0.299c-0.126-0.125-0.245-0.248-0.374-0.374c-0.258-0.261-0.555-0.52-0.822-0.784
		c-0.122-0.118-0.25-0.255-0.374-0.374c-0.092-0.096-0.205-0.202-0.299-0.299c-0.12-0.12-0.214-0.254-0.336-0.375
		c-0.269-0.27-0.582-0.546-0.859-0.822c-0.108-0.106-0.226-0.229-0.336-0.336c-0.098-0.103-0.199-0.232-0.299-0.336
		c-0.125-0.124-0.246-0.248-0.374-0.374c-0.369-0.371-0.772-0.775-1.158-1.158c-0.217-0.225-0.449-0.479-0.673-0.71
		c-0.28-0.282-0.607-0.571-0.896-0.859c-0.024-0.023-0.05-0.051-0.075-0.075c-0.289-0.288-0.561-0.603-0.859-0.896
		c-0.289-0.292-0.635-0.599-0.934-0.896c-0.122-0.118-0.25-0.255-0.374-0.374c-0.191-0.19-0.365-0.405-0.561-0.598
		c-0.244-0.245-0.534-0.497-0.784-0.747c-0.012-0.013-0.025-0.025-0.037-0.037c-0.04-0.038-0.073-0.074-0.112-0.112
		c-0.879-0.895-1.79-1.844-2.765-2.802c-0.119-0.12-0.254-0.253-0.374-0.374c-1.046-1.075-2.138-2.195-3.324-3.362
		c-0.24-0.242-0.501-0.501-0.747-0.747c-0.928-0.948-1.916-1.934-2.951-2.952c-0.215-0.215-0.453-0.453-0.674-0.673
		c-0.117-0.113-0.217-0.221-0.336-0.336c-0.276-0.276-0.536-0.579-0.822-0.859c-0.326-0.329-0.707-0.672-1.046-1.009
		c-0.134-0.14-0.273-0.306-0.411-0.448c-0.137-0.136-0.271-0.274-0.411-0.411c-0.305-0.307-0.656-0.621-0.972-0.934
		c-0.026-0.025-0.049-0.049-0.075-0.075c-0.267-0.264-0.511-0.552-0.784-0.822c-0.593-0.597-1.235-1.247-1.868-1.869
		c-0.228-0.228-0.477-0.478-0.71-0.71c-0.942-0.963-1.938-1.956-2.988-2.988c-0.107-0.107-0.229-0.227-0.336-0.336
		c-0.789-0.809-1.601-1.642-2.466-2.503c-0.582-0.594-1.207-1.174-1.83-1.793c-0.284-0.296-0.602-0.628-0.896-0.934
		c-0.29-0.292-0.634-0.598-0.934-0.896c-0.075-0.079-0.148-0.182-0.225-0.262c-0.092-0.088-0.207-0.172-0.299-0.262
		c-0.137-0.141-0.272-0.305-0.411-0.448c-0.591-0.595-1.207-1.249-1.83-1.868c-0.279-0.282-0.608-0.571-0.896-0.859
		c-0.169-0.176-0.351-0.381-0.523-0.561c-0.149-0.148-0.297-0.299-0.448-0.448c-0.271-0.271-0.582-0.545-0.859-0.822
		c-0.012-0.012-0.026-0.025-0.037-0.037c-0.104-0.102-0.193-0.197-0.299-0.299c-0.064-0.067-0.122-0.157-0.187-0.225
		c-0.15-0.149-0.295-0.297-0.448-0.448c-0.596-0.599-1.236-1.245-1.868-1.868c-0.27-0.271-0.582-0.546-0.859-0.822
		c-0.012-0.013-0.025-0.025-0.037-0.037c-0.099-0.094-0.164-0.203-0.262-0.299c-0.811-0.824-1.658-1.671-2.54-2.54
		c-0.588-0.592-1.208-1.254-1.83-1.868c-0.593-0.597-1.238-1.248-1.868-1.868c-0.244-0.247-0.534-0.498-0.784-0.747
		c-0.164-0.171-0.356-0.351-0.523-0.524c-0.025-0.024-0.051-0.051-0.075-0.075c-0.156-0.154-0.291-0.33-0.448-0.485
		c-0.59-0.594-1.208-1.251-1.83-1.868c-0.596-0.599-1.237-1.246-1.868-1.868c-21.203-21.347-65.157-57.602-124.122-64.211
		c0.032-0.47,0.073-0.95,0.112-1.42c-0.054-0.018-0.134-0.057-0.187-0.075v1.494c-0.599-0.067-1.19-0.126-1.793-0.187"/>
</g>
<path id="path80" inkscape:connector-curvature="0" fill="#FFF5F9" d="M306.705,249.013v3.512c0-1.168,0.094-2.299,0.187-3.437
	C306.838,249.07,306.758,249.03,306.705,249.013 M318.957,281.477c-1.522,0.01-3.055,0.023-4.595,0.075
	c-2.558,0.087-5.113,0.327-7.657,0.524c-0.021,0.002-0.017-0.001-0.037,0c-86.648,6.978-161.594,80.385-161.594,80.385
	s42.428,122.807,161.63,134.066c5.722,0.552,11.645,1.046,17.706,1.046c62.882,0,173.799-32.21,221.396-72.054
	c-6.983-7.08-41.011-23.237-49.307-29.883c-50.054,43.211-101.805,79.715-173.284,79.715c-5.727,0-11.217-0.374-16.511-1.045
	C219.231,463.3,189.336,366.835,189.336,366.835s39.125-57.781,117.368-63.758c2.518-0.176,5.066-0.254,7.657-0.336
	c1.106-0.035,2.192-0.072,3.287-0.075c68.988-0.215,114.116,60.849,114.116,60.849s-50.2,69.818-104.028,69.818
	c-7.746,0-14.778-1.409-21.03-3.512c-37.27-12.523-49.306-55.881-49.306-55.881s21.635-25.882,49.306-22.562
	c27.576,3.333,33.285,15.575,49.867,43.223l36.793-31.27c0,0-26.859-35.225-72.244-35.225c-4.937,0-9.785,0.363-14.416,0.859
	c-52.725,5.701-84.377,40.796-84.377,40.796s18.27,68.79,84.377,80.576c6.19,1.095,12.758,1.756,19.798,1.756
	c76.812,0,150.538-89.611,150.538-89.611s-62.156-81.604-158.08-80.982"/>
</svg>
