<?xml version="1.0" encoding="utf-8"?>
<!-- Generator: Adobe Illustrator 16.0.0, SVG Export Plug-In . SVG Version: 6.00 Build 0)  -->
<!DOCTYPE svg PUBLIC "-//W3C//DTD SVG 1.1//EN" "http://www.w3.org/Graphics/SVG/1.1/DTD/svg11.dtd">
<svg version="1.1"
	 id="svg2" xmlns:osb="http://www.openswatchbook.org/uri/2009/osb" xmlns:dc="http://purl.org/dc/elements/1.1/" xmlns:cc="http://creativecommons.org/ns#" xmlns:rdf="http://www.w3.org/1999/02/22-rdf-syntax-ns#" xmlns:svg="http://www.w3.org/2000/svg" xmlns:sodipodi="http://sodipodi.sourceforge.net/DTD/sodipodi-0.dtd" xmlns:inkscape="http://www.inkscape.org/namespaces/inkscape" inkscape:export-ydpi="100" inkscape:export-xdpi="100" inkscape:export-filename="/home/alecive/Scrivania/firefoxTest1.png" sodipodi:docname="user-home.svg" inkscape:version="0.91 r13725"
	 xmlns="http://www.w3.org/2000/svg" xmlns:xlink="http://www.w3.org/1999/xlink" x="0px" y="0px" width="512px" height="512px"
	 viewBox="0 0 512 512" enable-background="new 0 0 512 512" xml:space="preserve">
<filter  style="color-interpolation-filters:sRGB" height="1.0994889" width="1.0564131" y="-0.049744379" x="-0.028206533" id="filter4166" inkscape:collect="always">
	<feGaussianBlur  stdDeviation="5.8998423" id="feGaussianBlur4168" inkscape:collect="always"></feGaussianBlur>
</filter>
<sodipodi:namedview  inkscape:snap-intersection-paths="false" showguides="true" showgrid="false" inkscape:cy="218.40016" inkscape:cx="328.16944" inkscape:zoom="2.32" borderopacity="1.0" bordercolor="#666666" pagecolor="#ffffff" id="base" inkscape:guide-bbox="true" inkscape:snap-nodes="true" inkscape:snap-smooth-nodes="true" inkscape:object-nodes="true" inkscape:object-paths="false" inkscape:window-maximized="1" inkscape:window-y="30" inkscape:window-x="0" inkscape:window-height="834" inkscape:window-width="1600" inkscape:pageshadow="2" inkscape:current-layer="svg2" inkscape:pageopacity="0.0" inkscape:document-units="px">
	</sodipodi:namedview>
<g id="layer1" transform="translate(0,-540.36218)" inkscape:label="Livello 1" inkscape:groupmode="layer">
</g>
<g id="g2036" transform="matrix(1.1,0,0,0.44444,95.081063,256.39254)">
	<g id="g3712" transform="matrix(1.0526,0,0,1.2857,-1.2632,-13.429)" opacity="0.4">
	</g>
</g>
<g id="g3541" transform="translate(97.481063,231.28154)">
</g>
<g id="g3536" transform="translate(97.481063,231.28154)">
</g>
<g id="g4076" transform="translate(-605.51932,-353.96833)">
	<g id="g4038" transform="translate(-926.66758,684.38448)">
	</g>
</g>
<g id="g5906">
	<path id="rect2982-2" sodipodi:nodetypes="sscccssssccssccccccss" inkscape:connector-curvature="0" fill="#2980B9" d="
		M55.067,94.277c-7.824,0-14.124,6.298-14.124,14.122v37.329v120.132v121.546v7.308c0,5.987,4.82,10.807,10.808,10.807h408.5
		c5.987,0,10.809-4.819,10.809-10.807V265.859h-0.002V145.728c0-11.783-9.485-21.269-21.269-21.269H230.819
		c-5.816,0-8.114-0.686-11.839-4.189L197.013,98.5c-0.075-0.076-0.152-0.15-0.229-0.225l-0.044-0.042l-0.002,0.002
		c-2.538-2.449-5.988-3.958-9.81-3.958H55.067z"/>
	
		<g id="rect2982-5" sodipodi:nodetypes="cccsssccscc" inkscape:connector-curvature="0" opacity="0.3" filter="url(#filter4166)" enable-background="new    ">
		<path d="M54.147,154.81c-11.411,0-20.598,8.288-20.598,18.582l14.18,211.144v6.384c0,5.231,4.667,9.442,10.466,9.442h395.609
			c5.799,0,10.468-4.211,10.468-9.442l14.179-217.528c0-10.294-9.187-18.582-20.599-18.582H54.147L54.147,154.81z"/>
	</g>
	<path id="rect2982" sodipodi:nodetypes="cccsssccscc" inkscape:connector-curvature="0" fill="#4AAEE8" d="M47.571,157.231
		c-11.783,0-21.269,8.792-21.269,19.712l14.642,223.991v6.772c0,5.549,4.82,10.017,10.808,10.017h408.5
		c5.987,0,10.809-4.468,10.809-10.017L485.7,176.943c0-10.921-9.486-19.712-21.27-19.712H47.571L47.571,157.231z"/>
</g>
<g>
	<defs>
		<path id="SVGID_1_" d="M47.57,154.81c-11.783,0-21.269,8.792-21.269,19.712l14.642,223.991v6.772
			c0,5.549,4.82,10.017,10.808,10.017h408.5c5.987,0,10.809-4.468,10.809-10.017l14.641-230.764c0-10.921-9.486-19.712-21.27-19.712
			H47.57L47.57,154.81z"/>
	</defs>
	<clipPath id="SVGID_2_">
		<use xlink:href="#SVGID_1_"  overflow="visible"/>
	</clipPath>
	
		<linearGradient id="path8835_1_" gradientUnits="userSpaceOnUse" x1="6.6368" y1="501.9561" x2="423.8739" y2="81.9346" gradientTransform="matrix(1 0 0 -1 0 513)">
		<stop  offset="0" style="stop-color:#000000"/>
		<stop  offset="1" style="stop-color:#000000;stop-opacity:0"/>
	</linearGradient>
	
		<path id="path8835" sodipodi:nodetypes="ccccc" inkscape:connector-curvature="0" clip-path="url(#SVGID_2_)" fill="url(#path8835_1_)" d="
		M497.34,370.036L327.246,199.942H184.754v125.394l161.672,161.672"/>
	<path id="rect3156-7" inkscape:connector-curvature="0" clip-path="url(#SVGID_2_)" fill="#FFFFFF" d="M184.754,198.49v125.394
		h27.462v16.581h88.086v-16.581h26.943V198.49H184.754z M199.781,214.036h55.96v47.67h58.033v47.669h-58.033v-47.669h-55.96V214.036
		z"/>
</g>
</svg>
