<?xml version="1.0" encoding="utf-8"?>
<!-- Generator: Adobe Illustrator 21.0.0, SVG Export Plug-In . SVG Version: 6.00 Build 0)  -->
<svg version="1.1"
	 id="svg2" inkscape:version="0.91+devel r" sodipodi:docname="user-trash-full.svg" xmlns:cc="http://creativecommons.org/ns#" xmlns:dc="http://purl.org/dc/elements/1.1/" xmlns:inkscape="http://www.inkscape.org/namespaces/inkscape" xmlns:rdf="http://www.w3.org/1999/02/22-rdf-syntax-ns#" xmlns:sodipodi="http://sodipodi.sourceforge.net/DTD/sodipodi-0.dtd" xmlns:svg="http://www.w3.org/2000/svg"
	 xmlns="http://www.w3.org/2000/svg" xmlns:xlink="http://www.w3.org/1999/xlink" x="0px" y="0px" viewBox="0 0 512 512"
	 style="enable-background:new 0 0 512 512;" xml:space="preserve">
<style type="text/css">
	.st0{fill:#CFD1D0;}
	.st1{fill:#A4A5A5;}
	.st2{fill:#F9DE69;}
	.st3{fill:#1BA39C;fill-opacity:0.9961;}
	.st4{fill:#FFFFFF;}
	.st5{fill:#729BCC;}
</style>
<sodipodi:namedview  bordercolor="#666666" borderopacity="1" gridtolerance="10" guidetolerance="10" id="namedview4" inkscape:current-layer="svg2" inkscape:cx="206.07375" inkscape:cy="-164.85309" inkscape:pageopacity="0" inkscape:pageshadow="2" inkscape:window-height="1026" inkscape:window-maximized="0" inkscape:window-width="959" inkscape:window-x="960" inkscape:window-y="27" inkscape:zoom="0.5" objecttolerance="10" pagecolor="#ffffff" showgrid="false">
	</sodipodi:namedview>
<path id="path3348" inkscape:connector-curvature="0" class="st0" d="M236.8,480.5c-49.2-3.4-89.3-16.8-106.6-35.8
	c-6.2-6.7-7.8-10.4-9.7-20.9c-5-29.1-54.6-295.7-55.9-300.7c-8.9-34,27.3-64.8,96-81.6c15.7-3.9,39.6-7.7,58.6-9.4
	c17-1.5,56.5-1.5,73.6,0c83.1,7.4,145.3,36,154.6,71.2c1.8,6.8,1.7,12-0.6,21.4c-2.5,10.2-55.9,299.8-55.9,303c0,1.3-1.4,5.1-3,8.4
	c-8.4,16.8-36.5,31.7-74.5,39.4C292.2,479.9,259,482,236.8,480.5L236.8,480.5z"/>
<path id="path3340" inkscape:connector-curvature="0" class="st1" d="M233.9,170.9c-59.9-3-115.3-19.6-139.2-41.7
	c-6.1-5.6-10.9-13.6-10.9-18c0-7.5,9.2-18.6,22.1-26.8c55-35.1,169-44.5,252.5-20.7C387.2,71.8,409,83,421,95.7
	c8.1,8.6,9.7,14.1,6.1,21.9c-8.3,18.3-45.3,36.9-91.9,46.3c-18.7,3.8-36.6,5.9-58.7,7C257.2,171.9,254.7,171.9,233.9,170.9
	L233.9,170.9z"/>
<path id="path3370" inkscape:connector-curvature="0" sodipodi:nodetypes="ssscscssscs" class="st2" d="M143.6,147.4
	c-24.1-7.7-24.5-8.8-24.8-19.3c-0.1-4.7-0.3-9.3-0.4-10.2c-0.2-2.2,48.7-36.9,52.2-37c1.4,0,4.5,0.6,6.8,1.5l4.2,1.6l-4,5
	c-16.5,20.5-25.8,33.7-25.8,36.5c0,1.8,2.5,8.7,5.5,15.3s5.3,12.2,5,12.4C162,153.4,153.3,150.5,143.6,147.4z"/>
<path id="path3374" inkscape:connector-curvature="0" sodipodi:nodetypes="sssscss" class="st3" d="M376.1,140.2
	c0-3.1-3.2-7.9-11.5-17.5c-12.9-14.8-13.1-14,3.8-16.3c7.4-1,8.3-0.8,12.7,3.3c8.4,8,21.2,23.8,19.2,25
	c-1.8,1.5-25.1,11.3-27.3,11.3C372.2,146.1,376.1,142.5,376.1,140.2z"/>
<path id="path3361" inkscape:connector-curvature="0" sodipodi:nodetypes="ssssssssssssssss" class="st4" d="M215.8,162.1
	c-17.5-2-49-7.8-53.5-8.9c-4.2-0.9-5.3-4.3-9.5-14.8c-2.8-6.9-5.1-13.2-5.1-14c0-1.4,21-28.3,38-48.8c4.8-5.7,9.8-10.5,11.2-10.5
	c3.6,0,66.4,7.5,70.8,8.6c2.5,0.6,4.7,3.2,6.8,7.9c1.7,3.9,4.2,7.4,5.4,7.9c1.2,0.5,11-1,21.8-3.2c10.8-2.2,21-4,22.8-4
	c3.9,0,54.3,51.8,54.3,55.9c0,3.3-0.2,6.3-4.5,7.7c-4,1.3-10.8,4-20,6.2c-32.8,7.9-49,10.9-92.9,11.4
	C239.2,163.7,218.8,162.4,215.8,162.1L215.8,162.1z"/>
<g id="XMLID_40_">
	<g id="XMLID_47_">
		<path id="XMLID_48_" class="st5" d="M160.3,256.8c-0.6,0.2-1,0.6-1.1,1.2c-0.1,0.6,0,1.2,0.5,1.6l7.5,7.5l-0.1,0.1
			c-25.3,25.3-25.7,66-1.6,91.9l-2.7-8.1c-2-5.9-0.5-12.3,3.9-16.8c3.1-3,7.1-4.7,11.5-4.7c1.8,0,3.5,0.3,5.2,0.9l8.7,2.9
			c-10.2-11.5-9.9-29.1,1.1-40.1l0.1-0.1l7.5,7.5c0.4,0.4,1,0.6,1.6,0.5c0.6-0.1,1-0.6,1.2-1.1c2-6,11.4-33.7,19.6-58.1
			c1-3-1.8-5.9-4.9-4.9C199.9,243.3,166.5,254.7,160.3,256.8z"/>
	</g>
	<g id="XMLID_45_">
		<path id="XMLID_46_" class="st5" d="M313.9,218.4c-0.6-0.1-1.2,0-1.6,0.5l-7.5,7.5l-1.7-1.7c-12.5-12.5-29.1-19.4-46.8-19.4
			c-17.7,0-34.3,6.9-46.8,19.4l-0.1,0.1l8.2-2.8c1.7-0.6,3.5-0.9,5.3-0.9c4.3,0,8.3,1.7,11.6,4.8c4.4,4.4,5.8,10.8,3.8,16.6
			l-2.8,8.4l0.1-0.1c5.5-5.5,12.9-8.6,20.7-8.6c7.8,0,15.2,3,20.7,8.6l1.7,1.7l-7.5,7.5c-0.4,0.4-0.6,1-0.5,1.6
			c0.1,0.6,0.5,1,1.1,1.2c3.2,1.1,36.8,12.4,58,19.6c3,1,5.9-1.8,4.9-4.9c-6.2-18.3-17.9-52.9-19.6-58
			C315,219,314.5,218.5,313.9,218.4z"/>
	</g>
	<g id="XMLID_43_">
		<path id="XMLID_44_" class="st5" d="M295.1,406c-1.7,0.6-3.5,0.9-5.3,0.9c-4.3,0-8.4-1.7-11.5-4.8c-4.4-4.4-5.9-10.8-3.9-16.7
			l2.8-8.3l-0.1,0.1c-11.1,11.1-30.4,11.1-41.4,0l-1.7-1.7l7.5-7.5c0.4-0.4,0.6-1,0.5-1.6c-0.1-0.6-0.5-1-1.1-1.2
			c-5-1.7-41.2-14-58-19.7c-3-1-5.9,1.8-4.9,4.9c6,17.6,17.8,52.6,19.6,58c0.1,0.4,0.4,0.8,0.8,1c0.7,0.3,1.5,0.2,2-0.3l7.5-7.5
			l1.7,1.7c12.5,12.5,29.1,19.4,46.8,19.4c17.7,0,34.3-6.9,46.8-19.4l0.1-0.1L295.1,406z"/>
	</g>
	<g id="XMLID_41_">
		<path id="XMLID_42_" class="st5" d="M345.6,360.9l0.1-0.1c25.3-25.3,25.7-66,1.6-91.9l2.7,8.1c2,5.9,0.4,12.5-3.8,16.7
			c-3,3.1-7.2,4.8-11.5,4.8c-1.8,0-3.5-0.3-5.2-0.9l-8.7-2.9c10.2,11.5,9.9,29.1-1.1,40.1l-0.1,0.1l-7.5-7.5
			c-0.5-0.5-1.4-0.7-2.1-0.2c-0.3,0.2-0.6,0.6-0.7,0.9c-1.7,5.1-13.8,40.8-19.6,58c-1,3,1.8,5.9,4.9,4.9c16.7-5.6,53-18,58-19.7
			c0.6-0.2,1-0.6,1.1-1.2c0.1-0.6,0-1.2-0.5-1.6L345.6,360.9z"/>
	</g>
</g>
</svg>
