<?xml version="1.0" encoding="utf-8"?>
<!-- Generator: Adobe Illustrator 16.0.0, SVG Export Plug-In . SVG Version: 6.00 Build 0)  -->
<!DOCTYPE svg PUBLIC "-//W3C//DTD SVG 1.1//EN" "http://www.w3.org/Graphics/SVG/1.1/DTD/svg11.dtd">
<svg version="1.1"
	 id="svg3392" xmlns:dc="http://purl.org/dc/elements/1.1/" xmlns:cc="http://creativecommons.org/ns#" xmlns:rdf="http://www.w3.org/1999/02/22-rdf-syntax-ns#" xmlns:svg="http://www.w3.org/2000/svg" xmlns:sodipodi="http://sodipodi.sourceforge.net/DTD/sodipodi-0.dtd" xmlns:inkscape="http://www.inkscape.org/namespaces/inkscape" sodipodi:docname="disp disc.svg" inkscape:version="0.91 r13725"
	 xmlns="http://www.w3.org/2000/svg" xmlns:xlink="http://www.w3.org/1999/xlink" x="0px" y="0px" width="512px" height="512px"
	 viewBox="0 0 512 512" enable-background="new 0 0 512 512" xml:space="preserve">
<filter  style="color-interpolation-filters:sRGB" height="1.5909177" width="1.2215941" y="-0.29545885" x="-0.11079707" id="filter6065" inkscape:collect="always">
	<feGaussianBlur  stdDeviation="0.16064852" id="feGaussianBlur6067" inkscape:collect="always"></feGaussianBlur>
</filter>
<sodipodi:namedview  showgrid="true" inkscape:cy="247.97615" inkscape:cx="236.65704" inkscape:zoom="0.93303299" borderopacity="1.0" bordercolor="#666666" pagecolor="#ffffff" id="base" inkscape:window-maximized="0" inkscape:window-y="21" inkscape:window-x="0" inkscape:window-height="691" inkscape:window-width="641" inkscape:pageshadow="2" inkscape:current-layer="layer1" inkscape:pageopacity="0.0" inkscape:document-units="px" inkscape:grid-bbox="true">
	</sodipodi:namedview>
<g id="layer1" transform="translate(0,464)" inkscape:label="Layer 1" inkscape:groupmode="layer">
	<g id="g3347" transform="matrix(14.34428,0,0,14.34428,-94.34596,-574.14686)">
		<path id="rect5731" fill="#0A0F17" stroke="#FFFFFF" stroke-width="0.3" d="M11.378,34.086H37.12c0.347,0,0.629,0.282,0.629,0.629
			v1.742c0,0.347-0.282,0.629-0.629,0.629H11.378c-0.347,0-0.629-0.282-0.629-0.629v-1.742
			C10.749,34.368,11.03,34.086,11.378,34.086z"/>
		
			<path id="rect3406" sodipodi:nodetypes="sssssssss" inkscape:connector-curvature="0" fill="#04213E" stroke="#D4D4D4" stroke-width="0.1048" d="
			M16.046,7.961l16.555,0.006c0.831,0,4.595,0.6,4.62,1.413l0.777,25.42c0.025,0.813-0.669,1.468-1.5,1.468H12.073
			c-0.831,0-1.524-0.655-1.5-1.468l0.754-25.594C11.352,8.393,15.215,7.961,16.046,7.961z"/>
		<path id="path3409" sodipodi:nodetypes="scscss" inkscape:connector-curvature="0" fill="#2283C6" d="M11.238,9.608l-0.541,19.01
			c0,0,9.366,1.219,13.595,1.186c4.775-0.038,13.564-1.225,13.564-1.225L37.33,9.535C37.298,8.372,11.277,8.218,11.238,9.608
			L11.238,9.608z"/>
		<path id="rect3404" fill="#39C6F4" stroke="#F2F2F2" stroke-width="0.398" d="M11.332,33.185h25.95
			c0.348,0,0.629,0.282,0.629,0.629v1.744c0,0.348-0.282,0.629-0.629,0.629h-25.95c-0.348,0-0.629-0.282-0.629-0.629v-1.744
			C10.703,33.467,10.985,33.185,11.332,33.185z"/>
		<g id="rect5821" filter="url(#filter6065)">
			<path fill="#666666" d="M17.365,34.583H31.1c2.145,0,3.884,0.085,3.884,0.189v0.014c0,0.104-1.739,0.189-3.884,0.189H17.365
				c-2.145,0-3.884-0.085-3.884-0.189v-0.014C13.481,34.668,15.22,34.583,17.365,34.583z"/>
			<path fill="none" stroke="#D4D4D4" stroke-width="0.108" d="M17.365,34.583H31.1c2.145,0,3.884,0.085,3.884,0.189v0.014
				c0,0.104-1.739,0.189-3.884,0.189H17.365c-2.145,0-3.884-0.085-3.884-0.189v-0.014C13.481,34.668,15.22,34.583,17.365,34.583z"/>
		</g>
		
			<path id="circle4555" sodipodi:end="3.0821224" sodipodi:cy="34.91943" sodipodi:ry="7.7955713" sodipodi:type="arc" sodipodi:start="0" sodipodi:rx="7.7955713" sodipodi:cx="24.400972" fill="#333333" d="
			M32.197,34.919c0,4.215-3.351,7.667-7.564,7.792s-7.763-3.121-8.014-7.329l7.782-0.463H32.197z"/>
		
			<path id="path4484" sodipodi:end="3.1421515" sodipodi:cy="34.774887" sodipodi:ry="7.7955713" sodipodi:type="arc" sodipodi:start="0" sodipodi:rx="7.7955713" sodipodi:cx="24.154522" sodipodi:open="true" fill="#D3493C" d="
			M31.95,34.775c0,2.786-1.486,5.36-3.899,6.752c-2.413,1.392-5.385,1.392-7.797-0.002c-2.412-1.394-3.897-3.968-3.895-6.754"/>
		
			<path id="circle4496" sodipodi:end="3.1414135" sodipodi:cy="34.70826" sodipodi:ry="7.1292825" sodipodi:type="arc" sodipodi:start="0" sodipodi:rx="7.1292825" sodipodi:cx="24.154522" fill="#EF4836" d="
			M31.284,34.708c0,3.937-3.191,7.129-7.129,7.129c-3.937,0-7.129-3.191-7.13-7.128l7.129-0.001L31.284,34.708z"/>
		
			<rect id="rect4494" x="23.416" y="37.058" transform="matrix(-0.6681 -0.7441 0.7441 -0.6681 16.7006 81.8281)" fill="#F9F9F9" width="6.368" height="0.263"/>
		
			<path id="path4486" sodipodi:end="3.1376098" sodipodi:cy="34.67495" sodipodi:ry="3.0982397" sodipodi:type="arc" sodipodi:start="0" sodipodi:rx="3.0982397" sodipodi:cx="24.054579" sodipodi:open="true" fill="#CCCCCC" d="
			M27.153,34.675c0,1.709-1.383,3.095-3.092,3.098c-1.709,0.003-3.098-1.377-3.104-3.086"/>
		
			<path id="path4492" sodipodi:end="3.1089547" sodipodi:cy="34.67495" sodipodi:ry="2.3236799" sodipodi:type="arc" sodipodi:start="0" sodipodi:rx="2.3236799" sodipodi:cx="24.054579" fill="#333333" d="
			M26.378,34.675c0,1.269-1.017,2.303-2.286,2.323c-1.268,0.021-2.319-0.98-2.36-2.248l2.322-0.076H26.378z"/>
		<circle id="path4227" fill="#F2F2F2" fill-opacity="0.3065" cx="24.216" cy="19.212" r="9.768"/>
	</g>
</g>
</svg>
